<?xml version="1.0" encoding="UTF-8"?>
<svg xmlns="http://www.w3.org/2000/svg" xmlns:xlink="http://www.w3.org/1999/xlink" width="256px" height="256px" viewBox="0 0 256 256" version="1.1">
<g>
<path fill="rgb(238,99,99)" d="M 100.753906 35.316406 C 105.664062 38.675781 107.378906 43.539062 107.867188 49.011719 C 108.167969 52.429688 107.929688 55.820312 106.515625 58.980469 C 105.847656 60.46875 106.136719 61.554688 107.1875 62.617188 C 107.667969 63.097656 108.089844 63.640625 108.601562 64.078125 C 114.847656 69.390625 121.796875 73.53125 129.324219 76.78125 C 132.21875 78.027344 134.597656 76.804688 137.054688 75.796875 C 137.460938 75.628906 137.65625 74.546875 137.664062 73.882812 C 137.703125 65.054688 137.691406 56.238281 137.691406 47.410156 C 137.691406 46.679688 137.691406 45.957031 137.691406 45.285156 C 140.910156 44.460938 142.988281 45.332031 144.859375 48.019531 C 149.683594 54.957031 151.078125 62.523438 149.726562 70.667969 C 148.71875 76.742188 147.476562 82.785156 146.183594 88.804688 C 145.976562 89.773438 145.121094 90.835938 144.269531 91.386719 C 138.734375 94.9375 133.164062 98.4375 127.496094 101.773438 C 125.414062 102.996094 123.058594 103.761719 120.789062 104.632812 C 111.921875 108.011719 103.058594 111.371094 94.15625 114.65625 C 93.230469 115 92.027344 115.035156 91.058594 114.785156 C 80.351562 112.058594 74.164062 104.371094 70.335938 94.726562 C 66.222656 84.351562 65.214844 73.453125 66.835938 62.214844 L 70.214844 62.214844 C 70.316406 62.707031 70.476562 63.21875 70.515625 63.738281 C 70.808594 68.25 72.46875 72.222656 74.90625 76.007812 C 77.285156 79.707031 79.359375 83.597656 81.695312 87.621094 C 82.195312 86.925781 82.59375 86.40625 82.949219 85.855469 C 85.664062 81.714844 88.1875 77.433594 91.125 73.460938 C 93.804688 69.835938 95.140625 65.886719 95.636719 61.496094 C 95.949219 58.738281 96.453125 56 96.984375 53.273438 C 97.160156 52.382812 97.585938 51.480469 98.105469 50.726562 C 99.257812 49.054688 100.539062 47.480469 101.753906 45.886719 C 98.207031 41.992188 97.964844 39.429688 100.753906 35.316406"/>
<path fill="rgb(139,26,26)" d="M 94.503906 101.40625 C 105.671875 100.660156 116.199219 98.699219 125.230469 90.945312 C 123.566406 88.953125 122.1875 87.015625 120.519531 85.375 C 116.730469 81.664062 112.679688 78.277344 107.460938 76.644531 C 106.375 76.308594 105.746094 76.460938 105.105469 77.441406 C 101.59375 82.839844 98.007812 88.191406 94.484375 93.585938 C 94.167969 94.0625 93.925781 94.707031 93.953125 95.257812 C 94.046875 97.210938 94.285156 99.148438 94.503906 101.40625"/>
<path fill="rgb(238,99,99)" d="M 142.394531 37.671875 C 141.261719 38.1875 140.414062 38.574219 139.257812 39.105469 C 139.449219 37.320312 139.609375 35.832031 139.847656 33.707031 C 140.84375 35.265625 141.546875 36.351562 142.394531 37.671875"/>
</g>
<g>
<path fill="rgb(0,0,0)" d="M 141.8125 185.222656 C 145.121094 184.882812 146.394531 186.386719 146.414062 189.472656 C 146.425781 191.460938 146.878906 193.773438 147.972656 195.367188 C 151.355469 200.269531 156.402344 203.046875 161.777344 205.210938 C 176.945312 179.988281 181.953125 152.132812 184.851562 123.425781 C 185.40625 124.570312 186.136719 125.65625 186.488281 126.859375 C 188.199219 132.703125 188.910156 138.699219 188.488281 144.761719 C 188.382812 146.257812 187.277344 147.691406 186.558594 149.304688 C 186.96875 149.683594 187.527344 150.164062 188.042969 150.679688 C 189.363281 151.992188 190.253906 153.546875 189.777344 155.429688 C 188.027344 162.34375 190.367188 168.683594 192.378906 175.085938 C 195.15625 183.949219 199.917969 191.878906 204.070312 200.097656 C 204.308594 200.570312 205.234375 201.035156 205.765625 200.960938 C 209.191406 200.472656 212.59375 199.878906 215.988281 199.195312 C 216.621094 199.066406 217.265625 198.464844 217.691406 197.921875 C 223.570312 190.273438 225.382812 181.644531 223.820312 172.203125 C 222.625 164.980469 222.378906 157.765625 224.402344 150.617188 C 224.691406 149.613281 225.054688 148.628906 225.390625 147.636719 C 225.582031 147.601562 225.773438 147.578125 225.964844 147.546875 C 226.875 149.761719 228.121094 151.898438 228.628906 154.203125 C 230.195312 161.335938 231.742188 168.492188 232.792969 175.71875 C 233.671875 181.742188 231.367188 187.5 230.292969 193.351562 C 227.5 195.796875 226.964844 199.429688 225.371094 202.515625 C 225.101562 203.035156 224.402344 203.425781 223.820312 203.65625 C 222.625 204.121094 221.390625 204.511719 220.140625 204.804688 C 216.378906 205.691406 213.140625 207.507812 210.054688 209.824219 C 206.304688 212.640625 201.675781 213.261719 197.214844 213.964844 C 187.417969 215.511719 177.554688 216.1875 167.617188 215.75 C 165.355469 215.65625 164.261719 214.808594 163.847656 212.75 C 163.671875 211.886719 163.476562 211.027344 163.339844 210.15625 C 162.996094 207.929688 161.203125 207.859375 159.539062 207.5 C 157.742188 207.117188 157.574219 208.480469 157.175781 209.585938 C 156.972656 210.15625 156.992188 210.808594 156.742188 211.355469 C 156.363281 212.191406 155.828125 213.65625 155.386719 213.644531 C 154.078125 213.613281 152.097656 213.390625 151.609375 212.539062 C 148.359375 206.847656 145.242188 201.054688 142.484375 195.117188 C 141.070312 192.101562 140.941406 188.671875 141.8125 185.222656"/>
<path fill="rgb(139,26,26)" d="M 186.855469 179.546875 C 186.496094 179.609375 186.136719 179.671875 185.785156 179.738281 C 183.1875 185.675781 180.390625 191.546875 178.078125 197.59375 C 177.121094 200.109375 177.144531 203.019531 176.882812 205.765625 C 176.839844 206.238281 177.59375 207.246094 177.972656 207.246094 C 183.140625 207.1875 188.300781 206.878906 192.789062 203.871094 C 193.320312 203.519531 193.777344 202.777344 193.902344 202.144531 C 195 196.371094 193.554688 190.957031 191.097656 185.824219 C 190.015625 183.566406 188.289062 181.625 186.855469 179.546875"/>
<path fill="rgb(0,0,0)" d="M 145.070312 180.03125 C 141.886719 181.175781 141.886719 181.175781 140.832031 178.097656 C 140.3125 176.582031 139.789062 175.058594 139.460938 174.105469 C 140.792969 172.558594 142.304688 171.488281 142.753906 170.078125 C 143.21875 168.601562 142.675781 166.804688 142.558594 165.042969 C 145.105469 166.636719 146.105469 172.953125 145.070312 180.03125"/>
</g>
<g>
<path fill="rgb(221,160,221)" d="M 57.9375 152.683594 C 60.558594 153.324219 61.761719 155.175781 61.84375 157.320312 C 62.023438 162.097656 62.007812 166.910156 61.695312 171.679688 C 61.265625 178.164062 62.0625 184.429688 64.480469 190.414062 C 66.398438 195.167969 70.042969 198.367188 74.894531 200.058594 C 75.488281 200.261719 76.59375 199.957031 77.050781 199.480469 C 79.015625 197.441406 79.902344 194.9375 79.738281 192.0625 C 79.667969 190.847656 79.738281 189.625 79.769531 188.410156 C 79.839844 185.773438 80.382812 183.316406 82.546875 181.515625 C 83.527344 180.703125 83.726562 179.738281 82.996094 178.679688 C 80.933594 175.691406 81.054688 172.769531 83.410156 170.0625 C 85.832031 167.277344 84.398438 164.71875 82.949219 162.078125 C 83.71875 161.59375 84.328125 161.210938 85.035156 160.761719 C 87.832031 164.824219 89.542969 169.261719 89.882812 174.023438 C 90.316406 180.167969 90.285156 186.347656 90.433594 192.511719 C 90.4375 192.902344 90.375 193.371094 90.167969 193.675781 C 88.199219 196.5625 88.589844 199.730469 89.0625 202.878906 C 89.246094 204.097656 88.929688 204.871094 87.9375 205.632812 C 84.128906 208.574219 80.402344 211.628906 76.601562 214.585938 C 75.9375 215.105469 75.085938 215.480469 74.257812 215.667969 C 70.292969 216.558594 66.277344 217.242188 62.34375 218.234375 C 60.488281 218.699219 58.746094 219.648438 57 220.480469 C 54.636719 221.605469 52.414062 223.125 49.957031 223.929688 C 47.367188 224.78125 45.65625 223.8125 44.3125 221.503906 C 43.367188 219.878906 42.226562 219.296875 40.273438 219.867188 C 37.671875 220.628906 35.21875 220.511719 32.964844 218.386719 C 29.714844 215.320312 26.15625 212.574219 22.746094 209.675781 C 21.230469 208.382812 20.914062 207.039062 22.222656 205.703125 C 23.691406 204.199219 24.078125 202.6875 23.167969 200.753906 C 23.300781 200.628906 23.441406 200.5 23.578125 200.371094 C 24.28125 200.792969 25.242188 201.042969 25.652344 201.664062 C 27.5 204.492188 29.101562 207.488281 30.980469 210.292969 C 32.203125 212.109375 33.511719 214.027344 35.21875 215.320312 C 37.542969 217.070312 39.160156 216.402344 39.878906 213.621094 C 40.910156 209.605469 42.855469 206.253906 46.125 203.707031 C 47.578125 202.574219 47.808594 201.140625 48.027344 199.347656 C 49.019531 191.085938 50.015625 182.804688 51.597656 174.644531 C 52.824219 168.28125 54.90625 162.085938 56.652344 155.832031 C 56.941406 154.808594 57.460938 153.84375 57.9375 152.683594"/>
<path fill="rgb(139,26,26)" d="M 52.050781 212.660156 C 56.230469 210.527344 60.082031 208.570312 64.101562 206.515625 C 61.402344 202.886719 58.789062 199.371094 56.078125 195.71875 C 54.292969 198.585938 52.632812 201.222656 51.015625 203.886719 C 50.785156 204.261719 50.605469 204.789062 50.667969 205.195312 C 51.070312 207.585938 51.546875 209.957031 52.050781 212.660156"/>
<path fill="rgb(221,160,221)" d="M 24.863281 176.210938 C 28.070312 179.289062 28.242188 182.816406 27.265625 186.546875 C 27.136719 187.027344 26.4375 187.578125 25.921875 187.691406 C 24.609375 187.980469 23.238281 188.039062 21.492188 188.238281 C 21.101562 185.285156 20.683594 182.378906 20.371094 179.460938 C 20.339844 179.140625 20.792969 178.664062 21.144531 178.4375 C 22.324219 177.664062 23.558594 176.980469 24.863281 176.210938"/>
<path fill="rgb(221,160,221)" d="M 23.640625 168.289062 C 26.527344 169.601562 26.71875 170.195312 25.382812 173.292969 C 24.78125 171.558594 24.28125 170.125 23.640625 168.289062"/>
</g>
</svg>