<?xml version="1.0" encoding="utf-8"?>
<!-- Generator: Adobe Illustrator 16.0.0, SVG Export Plug-In . SVG Version: 6.00 Build 0)  -->
<!DOCTYPE svg PUBLIC "-//W3C//DTD SVG 1.1//EN" "http://www.w3.org/Graphics/SVG/1.1/DTD/svg11.dtd">
<svg version="1.1" id="图层_1" xmlns="http://www.w3.org/2000/svg" xmlns:xlink="http://www.w3.org/1999/xlink" x="0px" y="0px"
	 width="1000px" height="1000px" viewBox="0 0 1000 1000" enable-background="new 0 0 1000 1000" xml:space="preserve">
<path d="M442.867,85.734c41.585-4.669,72.804,11.755,93.656,49.219c0,4.724-6.524,16.425-19.512,35.156
	c-23.414,32.849-45.548,65.644-66.34,98.438c23.414-4.669,55.913-11.7,97.559-21.094c46.828-9.339,81.949-15.216,105.363-17.578
	c36.401,0,63.718,7.031,81.949,21.094c12.987,11.755,3.902,21.094-27.316,28.125c-46.828,7.031-140.484,16.425-280.969,28.125
	L302.383,479.484l175.605-24.609c-2.622-35.156-9.146-64.435-19.512-87.891c-5.243-7.031-6.524-11.7-3.902-14.063
	c28.597-9.339,58.535-3.516,89.754,17.578c0,4.724-1.341,11.755-3.902,21.094c-7.805,21.094-11.707,41.034-11.707,59.766
	c85.852-21.094,136.582-29.278,152.191-24.609c25.976,4.724,44.206,15.271,54.633,31.641c5.183,11.755-5.243,17.578-31.219,17.578
	c-5.243,0-13.048,0-23.414,0c-39.023-2.308-89.754,0-152.191,7.031v116.016c49.39-4.669,119.632-14.063,210.727-28.125
	c36.401-4.669,55.913-7.031,58.535-7.031c44.206,4.724,76.706,18.786,97.559,42.188c12.987,21.094-2.622,30.487-46.828,28.125
	c-85.852-11.7-192.556-11.7-319.992,0v154.688c-2.622,72.619-13.048,116.016-31.219,130.078c-13.048,0-19.512-42.188-19.512-126.563
	V637.688c-111.888,9.394-202.922,21.094-273.164,35.156c-15.609,4.724-27.316,7.031-35.121,7.031
	c-23.414,0-48.169-8.185-74.145-24.609c-15.609-9.339-10.427-15.216,15.609-17.578c64.999-2.308,144.387-8.185,238.043-17.578
	c52.011-7.031,94.937-11.7,128.777-14.063V486.516c-72.864,4.724-123.595,11.755-152.191,21.094
	c-18.231,4.724-36.462,10.547-54.633,17.578c-15.609,4.724-26.036,7.031-31.219,7.031c-18.231-18.731-24.755-33.948-19.512-45.703
	c2.562-2.308,7.805-5.823,15.609-10.547c23.414-9.339,40.304-22.247,50.73-38.672c36.401-49.219,63.718-90.198,81.949-123.047
	c-41.646,4.724-79.388,3.516-113.168-3.516c-36.462-9.339-37.743-16.37-3.902-21.094c23.414-2.308,55.913-7.031,97.559-14.063
	c18.171,0,32.499-1.153,42.926-3.516c15.609-32.794,27.316-58.558,35.121-77.344c12.987-35.156,16.89-65.589,11.707-91.406
	C436.343,93.974,437.624,88.097,442.867,85.734z"/>
</svg>
