<?xml version="1.0" encoding="utf-8"?>
<!-- Generator: Adobe Illustrator 16.0.0, SVG Export Plug-In . SVG Version: 6.00 Build 0)  -->
<!DOCTYPE svg PUBLIC "-//W3C//DTD SVG 1.1//EN" "http://www.w3.org/Graphics/SVG/1.1/DTD/svg11.dtd">
<svg version="1.1" id="图层_1" xmlns="http://www.w3.org/2000/svg" xmlns:xlink="http://www.w3.org/1999/xlink" x="0px" y="0px"
	 width="1000px" height="1000px" viewBox="0 0 1000 1000" enable-background="new 0 0 1000 1000" xml:space="preserve">
<path d="M416.551,63.672c54.633,18.787,76.706,36.365,66.34,52.734c-10.426,14.063-18.23,36.365-23.414,66.797
	c36.402-9.338,79.328-19.885,128.777-31.641c52.012-9.338,79.328-1.153,81.949,24.609c-33.84,18.787-106.704,35.156-218.531,49.219
	c0,2.362,0,5.878,0,10.547c-2.621,18.787-7.805,42.188-15.609,70.313c36.402-7.031,76.706-16.369,120.973-28.125
	c12.988-4.669,20.793-7.031,23.414-7.031c52.012-2.307,68.901,7.031,50.73,28.125c-15.609,9.394-83.29,22.303-202.922,38.672
	c-5.243,28.125-14.328,55.097-27.316,80.859c54.633-9.338,124.875-22.247,210.727-38.672c46.828-11.7,74.145-17.578,81.949-17.578
	c59.816-2.307,89.754,10.547,89.754,38.672c-5.243,4.725-39.023,9.394-101.461,14.063c-65.059,4.725-120.973,9.394-167.801,14.063
	c7.805,4.725,22.073,14.063,42.926,28.125c15.609,11.756,27.316,19.94,35.121,24.609
	c124.875,98.438,240.604,158.203,347.309,179.297c23.414,4.725,35.121,9.394,35.121,14.063c0,7.031-13.048,12.909-39.023,17.578
	c-98.899,9.394-154.813,9.394-167.801,0c-13.048-7.031-61.156-50.372-144.387-130.078c-23.414-23.4-41.645-40.979-54.633-52.734
	c-26.035-25.763-58.535-51.525-97.559-77.344c-28.657,4.725-48.169,8.24-58.535,10.547c-20.853,4.725-28.657,5.878-23.414,3.516
	c-15.609,39.881-44.267,83.222-85.852,130.078c23.414,7.031,36.402,10.547,39.023,10.547
	c93.656-14.063,154.753-25.763,183.41-35.156c62.438,11.756,94.938,36.365,97.559,73.828
	c-13.048,16.425-16.95,50.428-11.707,101.953c2.562,14.063,3.902,25.818,3.902,35.156c7.805,67.95-10.426,112.5-54.633,133.594
	c-7.805,2.307-16.95-9.394-27.316-35.156c-10.426-25.818-19.512-45.703-27.316-59.766c-91.095,4.669-144.387,9.338-159.996,14.063
	c-2.621,37.463-7.805,58.557-15.609,63.281c-10.426,2.307-22.133-12.909-35.121-45.703c0-2.362,1.281-12.909,3.902-31.641
	c5.184-35.156,7.805-64.435,7.805-87.891c0-39.825-3.902-78.497-11.707-116.016c-2.621-2.307-3.902-4.669-3.902-7.031
	C218.813,659.021,143.387,710.547,65.34,745.703c-28.658,11.756-42.926,15.271-42.926,10.547
	c-2.622-2.307,9.085-12.854,35.121-31.641c135.241-86.682,227.617-175.781,277.066-267.188
	c-72.863,11.756-127.496,21.094-163.898,28.125c-41.645-7.031-55.974-17.578-42.926-31.641c5.183,0,14.268-1.153,27.316-3.516
	c54.633-4.669,118.351-11.7,191.214-21.094c10.366-14.063,19.512-39.825,27.316-77.344c2.562-2.307,3.902-4.669,3.902-7.031
	c-31.219,7.031-63.778,10.547-97.559,10.547c-41.645-9.338-53.352-16.369-35.121-21.094c46.828-4.669,93.656-10.547,140.484-17.578
	c7.805-32.794,11.707-60.919,11.707-84.375c-33.84,7.031-67.681,10.547-101.461,10.547c-26.035-2.307-44.267-5.822-54.633-10.547
	c-7.804-4.669-2.621-9.338,15.609-14.063c23.414-4.669,31.219-5.822,23.414-3.516c59.816-9.338,100.12-16.369,120.973-21.094
	c5.184-51.525,0-84.375-15.609-98.438c-13.048-14.063-15.609-23.4-7.805-28.125C382.711,60.156,395.698,59.003,416.551,63.672z
	 M346.309,608.594c0,28.125,0,56.25,0,84.375c7.805-2.307,19.512-4.669,35.121-7.031c41.585-9.338,67.621-15.216,78.047-17.578
	c39.023,2.362,54.633,11.756,46.828,28.125c-26.035,14.063-79.388,18.787-159.996,14.063v84.375
	c83.23-11.7,132.68-17.578,148.289-17.578c7.805-2.307,18.171,2.362,31.219,14.063c10.366,4.725,16.891,7.031,19.512,7.031
	c10.366-9.338,14.269-46.856,11.707-112.5c-2.621-53.888-10.426-84.375-23.414-91.406c-13.048-7.031-66.34-3.516-159.996,10.547
	C360.577,607.44,351.492,608.594,346.309,608.594z"/>
</svg>
