<?xml version="1.0" encoding="utf-8"?>
<!-- Generator: Adobe Illustrator 16.0.0, SVG Export Plug-In . SVG Version: 6.00 Build 0)  -->
<!DOCTYPE svg PUBLIC "-//W3C//DTD SVG 1.1//EN" "http://www.w3.org/Graphics/SVG/1.1/DTD/svg11.dtd">
<svg version="1.1" id="图层_1" xmlns="http://www.w3.org/2000/svg" xmlns:xlink="http://www.w3.org/1999/xlink" x="0px" y="0px"
	 width="1000px" height="1000px" viewBox="0 0 1000 1000" enable-background="new 0 0 1000 1000" xml:space="preserve">
<path d="M722.738,195.687c25.975,0,44.206,4.724,54.633,14.063c5.183,7.031-2.622,14.063-23.414,21.094
	c-174.325,37.518-316.09,59.766-425.355,66.797L309.09,413.656c36.401,0,72.803-2.307,109.266-7.031
	c0-2.307-1.342-7.031-3.902-14.063c-2.622-18.732-5.244-30.432-7.805-35.156c-2.622-2.307-6.524-7.031-11.707-14.063
	c-10.427-9.338-10.427-16.37,0-21.094c31.219,2.362,54.633,10.547,70.242,24.609c2.561,4.724,2.561,12.909,0,24.609
	c-5.244,11.755-7.805,21.094-7.805,28.125l93.656-17.578c2.561-25.763,0-51.526-7.805-77.344
	c-5.244-9.338-6.524-15.216-3.902-17.578c52.011,2.362,79.327,14.063,81.949,35.156c-5.244,9.393-11.707,24.609-19.512,45.703
	c33.779-7.031,62.438-16.37,85.852-28.125c10.365-4.669,18.17-7.031,23.414-7.031c70.242,21.094,96.217,44.55,78.047,70.313
	c-13.049,9.393-37.743,39.88-74.145,91.406c-7.805,9.393-13.049,16.425-15.609,21.094c-10.427,11.755-24.756,9.393-42.926-7.031
	c-57.255,9.393-127.497,23.456-210.727,42.188c-41.646,9.393-66.34,14.063-74.145,14.063c-44.268-2.307-58.535-10.547-42.926-24.609
	c57.193-7.031,88.412-11.7,93.656-14.063v-94.922c-5.244,0-11.707,1.208-19.512,3.516c-18.231,4.724-31.219,7.031-39.023,7.031
	s-18.231-3.516-31.219-10.547c-10.427-4.669-19.512-8.185-27.316-10.547c-33.841,225-122.314,370.349-265.359,435.938
	c-13.049,9.338-22.134,12.854-27.316,10.547c-2.622-4.724,2.561-11.755,15.609-21.094c80.607-60.919,141.765-148.81,183.41-263.672
	c28.597-86.682,45.486-166.388,50.73-239.063c0-23.401-7.805-45.703-23.414-66.797c-13.049-21.094,10.365-24.609,70.242-10.547
	c10.365,2.362,16.89,3.516,19.512,3.516c54.633-4.669,145.667-21.094,273.164-49.219
	C672.008,203.927,712.312,195.687,722.738,195.687z M340.309,578.89c18.17,7.031,33.779,18.787,46.828,35.156
	c5.183,7.031,6.463,14.063,3.902,21.094c-2.622,4.724-3.902,8.24-3.902,10.547c12.987-2.307,31.219-7.031,54.633-14.063
	c18.17-7.031,31.219-10.547,39.023-10.547c18.17,0,28.597,4.724,31.219,14.063c2.561,7.031-5.244,12.909-23.414,17.578h-7.805
	c-39.023,7.031-71.584,10.547-97.559,10.547l-19.512,112.5c10.365-2.307,25.975-8.185,46.828-17.578
	c41.584-16.37,67.62-25.763,78.047-28.125c15.609-4.669,24.694-4.669,27.316,0c0,4.724-9.146,10.547-27.316,17.578
	c-80.669,42.188-139.204,76.135-175.605,101.953c-23.414,11.7-40.365-2.362-50.73-42.188c0-2.307,3.902-4.669,11.707-7.031
	c28.597-11.7,48.108-32.794,58.535-63.281c10.365-44.495,9.085-84.375-3.902-119.531C312.992,587.13,316.895,574.221,340.309,578.89
	z M445.672,111.312c12.987-23.401,52.011-19.885,117.07,10.547c33.779,39.88,33.779,64.49,0,73.828
	C526.279,193.38,487.256,165.255,445.672,111.312z M551.035,403.109l-93.656,21.094v91.406l78.047-10.547
	C545.791,453.536,551.035,419.534,551.035,403.109z M578.352,533.187c23.414,9.393,39.023,19.94,46.828,31.641
	c0,7.031-2.622,18.787-7.805,35.156c-10.427,21.094-16.951,39.88-19.512,56.25c44.206-23.401,76.705-48.01,97.559-73.828
	c5.183-9.338,10.365-14.063,15.609-14.063c12.987,0,31.219,9.393,54.633,28.125c15.609,16.425,16.89,25.818,3.902,28.125
	c-5.244,0-19.512,4.724-42.926,14.063c-57.255,16.425-100.181,28.125-128.777,35.156c0,4.724,0,11.755,0,21.094
	c-5.244,46.912,5.183,78.552,31.219,94.922c36.401,16.425,92.314,21.094,167.801,14.063c36.401-2.307,61.096-11.7,74.145-28.125
	c20.792-28.125,33.779-63.281,39.023-105.469c2.561-9.338,5.183-15.216,7.805-17.578c7.805,0,11.707,4.724,11.707,14.063
	c2.561,42.188,7.805,76.19,15.609,101.953c12.987,30.487,5.183,50.372-23.414,59.766c-15.609,14.063-57.255,24.609-124.875,31.641
	c-67.682,2.307-120.973-2.362-159.996-14.063c-49.45-21.094-75.486-53.888-78.047-98.438c0-16.37,1.28-40.979,3.902-73.828
	c2.561-60.919,1.28-98.438-3.902-112.5C548.413,540.219,554.938,530.88,578.352,533.187z M691.52,382.015
	c-10.427,0-42.926,3.516-97.559,10.547l-23.414,101.953c10.365-2.307,23.414-4.669,39.023-7.031
	c12.987-2.307,22.072-3.516,27.316-3.516c7.805,0,18.17,2.362,31.219,7.031C696.702,418.38,704.507,382.015,691.52,382.015z"/>
</svg>
