<?xml version="1.0" encoding="utf-8"?>
<!-- Generator: Adobe Illustrator 16.0.0, SVG Export Plug-In . SVG Version: 6.00 Build 0)  -->
<!DOCTYPE svg PUBLIC "-//W3C//DTD SVG 1.1//EN" "http://www.w3.org/Graphics/SVG/1.1/DTD/svg11.dtd">
<svg version="1.1" id="图层_1" xmlns="http://www.w3.org/2000/svg" xmlns:xlink="http://www.w3.org/1999/xlink" x="0px" y="0px"
	 width="1000px" height="1000px" viewBox="0 0 1000 1000" enable-background="new 0 0 1000 1000" xml:space="preserve">
<path d="M313.992,95.313h3.902c49.389,14.063,68.9,30.487,58.535,49.219c-10.427,30.487-18.231,69.159-23.414,116.016
	c85.852-14.063,119.631-8.185,101.461,17.578c-7.805,7.031-42.926,14.063-105.363,21.094v59.766c33.779-2.307,59.815,0,78.047,7.031
	c12.987,11.756,19.512,28.125,19.512,49.219c-2.622,11.756-13.049,11.756-31.219,0c-7.805-4.669-18.231-11.7-31.219-21.094
	c-15.609-9.338-27.316-15.216-35.121-17.578c0,53.943-2.622,92.615-7.805,116.016c-2.622,35.156-9.146,53.943-19.512,56.25
	c-7.805,2.362-15.609-10.547-23.414-38.672c-2.622-7.031,0-30.432,7.805-70.313c5.183-37.463,7.805-65.588,7.805-84.375
	c-54.633,68.006-111.888,118.378-171.703,151.172c-26.036,11.756-41.646,16.425-46.828,14.063
	c-2.622-7.031,7.805-17.578,31.219-31.641c75.425-56.25,133.96-116.016,175.605-179.297c-33.841,7.031-70.242,11.756-109.266,14.063
	c-59.877-7.031-75.486-15.216-46.828-24.609c20.792-2.307,58.535-9.338,113.168-21.094c25.975-4.669,44.206-8.185,54.633-10.547
	c5.183-72.619-2.622-123.047-23.414-151.172c-7.805-7.031-9.146-12.854-3.902-17.578C291.858,94.159,300.943,93.006,313.992,95.313z
	 M415.453,489.063c46.828,9.394,66.34,21.094,58.535,35.156c-13.049,21.094-22.134,51.581-27.316,91.406
	c111.826,126.563,258.835,200.391,440.965,221.484c31.219,4.669,48.108,9.338,50.73,14.063c0,4.669-14.329,9.338-42.926,14.063
	c-98.9,11.7-167.801,14.063-206.824,7.031c-13.049,4.669-78.047-51.581-195.117-168.75c-23.414-21.094-41.646-38.672-54.633-52.734
	C410.209,765.644,324.357,835.9,181.313,861.719c-33.841,7.031-52.072,7.031-54.633,0c-2.622-4.725,12.987-12.909,46.828-24.609
	c122.253-35.156,196.397-101.953,222.434-200.391c10.365-60.919,9.085-105.469-3.902-133.594
	C389.417,491.425,397.222,486.756,415.453,489.063z M247.652,576.953c31.219,7.031,55.913,19.94,74.145,38.672
	c18.17,32.85,7.805,50.428-31.219,52.734C230.701,600.409,216.434,569.922,247.652,576.953z M602.766,63.672
	c49.389,7.031,74.145,21.094,74.145,42.188c-13.049,28.125-20.854,72.675-23.414,133.594c31.219-9.338,62.438-17.578,93.656-24.609
	c10.365,0,18.17-1.153,23.414-3.516c39.023-2.307,55.913,5.878,50.73,24.609c-13.049,11.756-70.242,25.818-171.703,42.188v59.766
	c75.425,0,120.973,5.878,136.582,17.578c28.597,11.756,44.206,26.972,46.828,45.703c-2.622,23.456-15.609,30.487-39.023,21.094
	c-26.036-11.7-74.145-35.156-144.387-70.313c0,25.818,0,56.25,0,91.406c-5.244,39.881-13.049,60.975-23.414,63.281
	c-13.049,0-24.756-18.731-35.121-56.25c-2.622-4.669-1.342-11.7,3.902-21.094c7.805-28.125,11.707-60.919,11.707-98.438
	c-36.463,46.912-79.389,80.859-128.777,101.953c-28.658,11.756-45.548,16.425-50.73,14.063c0-4.669,11.707-15.216,35.121-31.641
	c46.828-32.794,92.314-77.344,136.582-133.594c-36.463,9.394-67.682,12.909-93.656,10.547
	c-36.463-7.031-42.926-15.216-19.512-24.609c25.975-7.031,68.9-15.216,128.777-24.609c0-4.669,0-11.7,0-21.094
	c2.561-72.619-9.146-119.531-35.121-140.625C574.107,69.55,581.912,63.672,602.766,63.672z M598.863,527.734
	c7.805-11.7,23.414-8.185,46.828,10.547c28.597,30.487,36.401,48.065,23.414,52.734c-36.463,7.031-79.389,14.063-128.777,21.094
	c-28.658,2.362-44.268,2.362-46.828,0c-2.622-2.307,7.805-9.338,31.219-21.094C566.303,569.922,591.059,548.828,598.863,527.734z"/>
</svg>
