<?xml version="1.0" encoding="utf-8"?>
<!-- Generator: Adobe Illustrator 16.0.0, SVG Export Plug-In . SVG Version: 6.00 Build 0)  -->
<!DOCTYPE svg PUBLIC "-//W3C//DTD SVG 1.1//EN" "http://www.w3.org/Graphics/SVG/1.1/DTD/svg11.dtd">
<svg version="1.1" id="图层_1" xmlns="http://www.w3.org/2000/svg" xmlns:xlink="http://www.w3.org/1999/xlink" x="0px" y="0px"
	 width="1000px" height="1000px" viewBox="0 0 1000 1000" enable-background="new 0 0 1000 1000" xml:space="preserve">
<path d="M346.211,582.953c44.206,11.756,61.096,24.609,50.73,38.672c-15.609,14.063-37.743,42.188-66.34,84.375
	c36.401-11.7,63.718-18.731,81.949-21.094c20.792-2.307,32.499-2.307,35.121,0c2.561,2.362-3.902,7.031-19.512,14.063
	c-161.337,49.219-265.359,83.222-312.188,101.953c-13.048,2.362-33.841-7.031-62.438-28.125
	c-10.427-7.031-13.048-12.854-7.805-17.578c5.183-4.669,14.269-5.822,27.316-3.516c25.976,2.362,101.461-10.547,226.336-38.672
	c28.597-51.525,39.023-86.682,31.219-105.469c-5.243-11.7-6.524-19.885-3.902-24.609
	C329.261,578.284,335.784,578.284,346.211,582.953z M268.164,143.5c2.562,0,5.183,1.208,7.805,3.516
	c49.39,11.755,68.9,24.609,58.535,38.672c-15.609,25.817-23.414,58.612-23.414,98.438c52.011-16.369,85.852-24.609,101.461-24.609
	c52.011,2.362,68.9,12.909,50.73,31.641c-5.244,2.362-24.756,5.878-58.535,10.547c-39.023,4.725-70.242,9.394-93.656,14.063
	c0,32.85,0,53.943,0,63.281c41.584-9.338,64.998-14.063,70.242-14.063c36.401,0,49.389,5.878,39.023,17.578
	c-7.805,7.031-36.463,14.063-85.852,21.094c-44.267,7.031-84.571,14.063-120.973,21.094c-46.828-9.338-59.876-17.578-39.023-24.609
	c20.792-2.307,52.011-7.031,93.656-14.063c2.562-7.031,3.902-17.578,3.902-31.641c0-16.369,0-26.916,0-31.641
	c-13.048,2.362-36.462,5.878-70.242,10.547c-15.609,2.362-28.657,4.725-39.023,7.031c-39.023,4.725-57.255-2.307-54.633-21.094
	c23.414-2.307,59.815-8.185,109.266-17.578c25.976-4.669,44.206-8.185,54.633-10.547c0-4.669-1.341-14.063-3.902-28.125
	c0-51.526-6.524-82.013-19.512-91.406c-13.048-14.063-18.231-23.401-15.609-28.125C238.226,138.831,249.933,138.831,268.164,143.5z
	 M361.82,438.813c46.828-2.307,74.145,10.547,81.949,38.672c-31.219,16.425-48.17,35.156-50.73,56.25
	c0,2.362,1.28,5.878,3.902,10.547c5.183,4.725,6.463,8.24,3.902,10.547c-2.622,2.362-9.146,3.516-19.512,3.516
	c-46.828,7.031-102.802,18.787-167.801,35.156c-7.805,7.031-14.329,10.547-19.512,10.547c-7.805-2.307-13.048-9.338-15.609-21.094
	c-7.805-30.432-22.134-58.557-42.926-84.375c-5.243-7.031-7.805-12.854-7.805-17.578c2.562-4.669,7.805-7.031,15.609-7.031
	s19.512,1.209,35.121,3.516C233.043,479.847,294.14,466.938,361.82,438.813z M190.117,628.656
	c28.597,4.725,48.108,12.909,58.535,24.609c7.805,16.425,6.464,32.85-3.902,49.219c-10.427,7.031-22.134,3.516-35.121-10.547
	C170.605,647.443,164.081,626.35,190.117,628.656z M350.113,477.484c-5.244-2.307-29.938,1.209-74.145,10.547
	c-33.841,7.031-61.157,12.909-81.949,17.578c-2.622,0,0,12.909,7.805,38.672c2.562,14.063,3.902,22.303,3.902,24.609
	c64.999-11.7,109.266-23.4,132.68-35.156C356.576,510.334,360.479,491.547,350.113,477.484z M607.668,111.859
	c59.815,16.425,83.229,34.003,70.242,52.734c-13.049,35.156-24.756,87.891-35.121,158.203c7.805-2.307,20.792-5.822,39.023-10.547
	c25.975-9.338,45.486-15.216,58.535-17.578c52.011-4.669,76.705,4.725,74.145,28.125c-2.622,4.725-23.414,10.547-62.438,17.578
	c-44.268,7.031-81.949,14.063-113.168,21.094l-3.902,14.063c-7.805,60.975-10.427,93.769-7.805,98.438
	c10.365-2.307,23.414-8.185,39.023-17.578c2.561-2.307,5.183-3.516,7.805-3.516c10.365-7.031,29.877-1.153,58.535,17.578
	c18.17,14.063,23.414,25.818,15.609,35.156c-10.427,9.394-28.658,36.365-54.633,80.859c-20.854,42.188-37.743,70.313-50.73,84.375
	c93.656,65.644,184.69,107.831,273.164,126.563c31.219,4.725,46.828,9.338,46.828,14.063c2.561,4.669-11.707,8.185-42.926,10.547
	c-7.805,0-20.854,1.153-39.023,3.516c-80.669,7.031-128.777,4.669-144.387-7.031c-15.609-7.031-44.268-31.641-85.852-73.828
	c-18.231-18.731-31.219-32.794-39.023-42.188c-52.072,49.219-117.07,83.222-195.117,101.953
	c-33.841,4.669-52.072,5.822-54.633,3.516c-2.622-2.362,11.707-9.338,42.926-21.094c75.425-32.794,135.24-71.466,179.508-116.016
	c-31.219-32.794-57.255-57.403-78.047-73.828c-10.427-7.031-23.414-14.063-39.023-21.094c-13.049-4.669-16.951-9.338-11.707-14.063
	c23.414-7.031,42.926-5.822,58.535,3.516c5.183,4.725,16.89,15.271,35.121,31.641c28.597,21.094,48.108,36.365,58.535,45.703
	c39.023-65.588,54.633-112.5,46.828-140.625c-5.244-7.031-45.548,0-120.973,21.094c-7.805,2.362-13.049,3.516-15.609,3.516
	c-44.268-9.338-59.877-17.578-46.828-24.609c46.828-7.031,85.852-14.063,117.07-21.094c2.561-7.031,3.902-25.763,3.902-56.25
	c2.561-30.432,3.902-49.219,3.902-56.25c-33.841,9.394-59.877,14.063-78.047,14.063c-15.609,0-28.658-3.516-39.023-10.547
	c-2.622-4.669,3.902-9.338,19.512-14.063c2.561,0,9.085-1.153,19.512-3.516c54.633-11.7,81.949-18.731,81.949-21.094
	c7.805-105.469,5.183-167.542-7.805-186.328c-10.427-14.063-14.329-24.609-11.707-31.641
	C582.912,110.706,592.059,109.552,607.668,111.859z"/>
</svg>
