<?xml version="1.0" encoding="utf-8"?>
<!-- Generator: Adobe Illustrator 16.0.0, SVG Export Plug-In . SVG Version: 6.00 Build 0)  -->
<!DOCTYPE svg PUBLIC "-//W3C//DTD SVG 1.1//EN" "http://www.w3.org/Graphics/SVG/1.1/DTD/svg11.dtd">
<svg version="1.1" id="图层_1" xmlns="http://www.w3.org/2000/svg" xmlns:xlink="http://www.w3.org/1999/xlink" x="0px" y="0px"
	 width="1000px" height="1000px" viewBox="0 0 1000 1000" enable-background="new 0 0 1000 1000" xml:space="preserve">
<path d="M585.254,602.047c78.047,11.756,100.12,30.487,66.34,56.25c-171.703-4.669-333.04,14.063-483.891,56.25
	c-31.219-2.307-59.876-11.7-85.852-28.125c-15.609-9.338-9.146-15.216,19.512-17.578c140.484-11.7,282.249-30.432,425.355-56.25
	C557.938,605.563,577.449,602.047,585.254,602.047z M585.254,116.891c54.633,18.787,84.511,39.881,89.754,63.281
	c-2.622,7.031-7.805,14.063-15.609,21.094c-20.853,14.063-35.121,39.881-42.926,77.344
	c-18.231,121.894-37.743,185.175-58.535,189.844c-18.231-2.307-31.219-19.885-39.023-52.734
	c39.023-126.563,52.011-201.544,39.023-225c-10.427-7.031-70.242,1.209-179.508,24.609c-36.462,7.031-58.535,11.756-66.34,14.063
	c-31.219-9.338-53.353-21.094-66.34-35.156c-5.243-9.338,6.464-14.063,35.121-14.063c161.276-9.338,257.555-28.125,288.773-56.25
	C574.827,119.253,580.011,116.891,585.254,116.891z M296.48,271.578c49.39-9.338,83.229,4.725,101.461,42.188
	c0,2.362-1.341,7.031-3.902,14.063c-13.048,32.85-26.036,92.615-39.023,179.297c62.438-16.369,167.801-31.641,316.09-45.703
	c44.206-2.307,75.425-7.031,93.656-14.063l7.805-3.516c54.633,16.425,89.754,37.519,105.363,63.281
	c-2.622,4.725-7.805,10.547-15.609,17.578c-20.853,14.063-32.56,38.672-35.121,73.828c-7.805,75.037-23.414,140.625-46.828,196.875
	c-28.657,44.494-62.438,73.828-101.461,87.891c-2.622,0-9.146-9.394-19.512-28.125c-20.853-35.156-40.364-60.919-58.535-77.344
	c-15.609-14.063-22.134-22.247-19.512-24.609c2.562-2.307,14.269,0,35.121,7.031c39.023,16.425,63.718,23.456,74.145,21.094
	c23.414-9.338,44.206-48.01,62.438-116.016c18.171-82.013,19.512-133.594,3.902-154.688c-13.048-14.063-79.388-15.216-199.02-3.516
	c-15.609,2.362-27.316,3.516-35.121,3.516c-101.461,9.394-171.703,28.125-210.727,56.25c-7.805,4.725-13.048,7.031-15.609,7.031
	c-20.853-4.669-31.219-21.094-31.219-49.219c2.562-4.669,6.464-9.338,11.707-14.063c20.792-9.338,35.121-39.825,42.926-91.406
	c10.366-65.588,3.902-111.291-19.512-137.109C295.14,277.456,293.858,273.94,296.48,271.578z"/>
</svg>
