<?xml version="1.0" encoding="UTF-8"?>
<svg id="_图层_1" data-name="图层_1" xmlns="http://www.w3.org/2000/svg" version="1.1" viewBox="0 0 1000 1000">
  <!-- Generator: Adobe Illustrator 29.4.0, SVG Export Plug-In . SVG Version: 2.1.0 Build 152)  -->
  <path d="M836.21,539.87c10.39,0,17.69,1.89,21.86,5.63,2.07,2.81-1.05,5.63-9.37,8.44-69.76,15.01-126.49,23.92-170.22,26.73l-7.81,46.43c14.57,0,29.13-.92,43.73-2.81,0-.92-.54-2.81-1.56-5.63-1.05-7.5-2.1-12.18-3.12-14.07-1.05-.92-2.61-2.81-4.68-5.63-4.17-3.74-4.17-6.55,0-8.44,12.49.95,21.86,4.22,28.11,9.85,1.02,1.89,1.02,5.17,0,9.85-2.1,4.7-3.12,8.44-3.12,11.25l37.48-7.03c1.02-10.31,0-20.62-3.12-30.95-2.1-3.74-2.61-6.09-1.56-7.03,20.81.95,31.74,5.63,32.79,14.07-2.1,3.76-4.68,9.85-7.81,18.29,13.52-2.81,24.99-6.55,34.36-11.25,4.15-1.87,7.27-2.81,9.37-2.81,28.11,8.44,38.5,17.83,31.23,28.14-5.22,3.76-15.1,15.96-29.67,36.58-3.12,3.76-5.22,6.57-6.25,8.44-4.17,4.7-9.91,3.76-17.18-2.81-22.91,3.76-51.02,9.39-84.33,16.88-16.67,3.76-26.55,5.63-29.67,5.63-17.72-.92-23.42-4.22-17.18-9.85,22.89-2.81,35.38-4.68,37.48-5.63v-37.99c-2.1,0-4.68.48-7.81,1.41-7.3,1.89-12.49,2.81-15.62,2.81s-7.3-1.41-12.49-4.22c-4.17-1.87-7.81-3.28-10.93-4.22-13.54,90.04-48.95,148.2-106.19,174.45-5.22,3.74-8.86,5.14-10.93,4.22-1.05-1.89,1.02-4.7,6.25-8.44,32.26-24.38,56.73-59.55,73.4-105.52,11.44-34.69,18.2-66.58,20.3-95.67,0-9.36-3.12-18.29-9.37-26.73-5.22-8.44,4.15-9.85,28.11-4.22,4.15.95,6.76,1.41,7.81,1.41,21.86-1.87,58.29-8.44,109.31-19.7,28.11-6.55,44.24-9.85,48.41-9.85ZM683.17,693.22c7.27,2.81,13.52,7.52,18.74,14.07,2.07,2.81,2.59,5.63,1.56,8.44-1.05,1.89-1.56,3.3-1.56,4.22,5.2-.92,12.49-2.81,21.86-5.63,7.27-2.81,12.49-4.22,15.62-4.22,7.27,0,11.44,1.89,12.49,5.63,1.02,2.81-2.1,5.17-9.37,7.03h-3.12c-15.62,2.81-28.65,4.22-39.04,4.22l-7.81,45.02c4.15-.92,10.39-3.28,18.74-7.03,16.64-6.55,27.06-10.31,31.23-11.25,6.25-1.87,9.88-1.87,10.93,0,0,1.89-3.66,4.22-10.93,7.03-32.28,16.88-55.71,30.47-70.27,40.8-9.37,4.68-16.15-.95-20.3-16.88,0-.92,1.56-1.87,4.68-2.81,11.44-4.68,19.25-13.12,23.42-25.32,4.15-17.81,3.64-33.76-1.56-47.83-6.25-12.18-4.68-17.34,4.68-15.48ZM725.34,506.11c5.2-9.36,20.81-7.96,46.85,4.22,13.52,15.96,13.52,25.81,0,29.54-14.59-.92-30.21-12.18-46.85-33.76ZM767.5,622.88l-37.48,8.44v36.58l31.23-4.22c4.15-20.62,6.25-34.23,6.25-40.8ZM778.43,674.93c9.37,3.76,15.62,7.98,18.74,12.66,0,2.81-1.05,7.52-3.12,14.07-4.17,8.44-6.78,15.96-7.81,22.51,17.69-9.36,30.7-19.21,39.04-29.54,2.07-3.74,4.15-5.63,6.25-5.63,5.2,0,12.49,3.76,21.86,11.25,6.25,6.57,6.76,10.33,1.56,11.25-2.1,0-7.81,1.89-17.18,5.63-22.91,6.57-40.09,11.25-51.53,14.07v8.44c-2.1,18.77,2.07,31.43,12.49,37.99,14.57,6.57,36.94,8.44,67.15,5.63,14.57-.92,24.45-4.68,29.67-11.25,8.32-11.25,13.52-25.32,15.62-42.21,1.02-3.74,2.07-6.09,3.12-7.03,3.12,0,4.68,1.89,4.68,5.63,1.02,16.88,3.12,30.49,6.25,40.8,5.2,12.2,2.07,20.16-9.37,23.92-6.25,5.63-22.91,9.85-49.97,12.66-27.08.92-48.41-.95-64.03-5.63-19.79-8.44-30.21-21.56-31.23-39.39,0-6.55.51-16.4,1.56-29.54,1.02-24.38.51-39.39-1.56-45.02-4.17-8.44-1.56-12.18,7.81-11.26ZM823.72,614.43c-4.17,0-17.18,1.41-39.04,4.22l-9.37,40.8c4.15-.92,9.37-1.87,15.62-2.81,5.2-.92,8.83-1.41,10.93-1.41,3.12,0,7.27.95,12.49,2.81,11.44-29.06,14.57-43.61,9.37-43.61Z"/>
  <path d="M227.06,114.57c20.69-1.38,34.49,4.84,41.38,18.64-12.27,4.14-16.09,46.96-11.5,128.42-2.3,17.96-8.44,30.73-18.39,38.32-2.3.68-4.99-3.46-8.05-12.43-3.84-11.04-7.29-18.98-10.35-23.82-41.38,2.07-65.52,3.46-72.42,4.14-1.54,11.75-4.22,17.27-8.05,16.57-3.84-1.38-7.67-8.28-11.5-20.71,0-1.38.38-4.14,1.15-8.28,4.6-15.87,6.5-35.89,5.75-60.07-.77-31.75-3.84-52.12-9.2-61.1-5.37-5.52-6.14-8.28-2.3-8.28,3.83-.68,12.25,1.04,25.29,5.18,19.15-.68,45.21-6.21,78.17-16.57ZM214.41,131.14c-6.14.7-17.24,2.43-33.34,5.18-13.79,2.07-24.14,3.46-31.04,4.14v53.85c12.25-2.07,23.74-4.82,34.49-8.28,4.6-1.38,7.65-2.07,9.2-2.07,18.39.7,26.82,4.14,25.29,10.36-16.87,4.84-39.86,7.6-68.97,8.28.75,2.07,1.15,10.36,1.15,24.85-.77,12.43-1.54,22.78-2.3,31.07,38.31-6.21,59-8.96,62.07-8.28,2.3,0,7.65,2.77,16.09,8.28l3.45,2.07c3.83-3.45,6.12-16.57,6.9-39.35,1.53-23.46,1.15-46.6-1.15-69.39,0-17.25-7.29-24.16-21.84-20.71Z"/>
  <path d="M229.08,333.9c8.58-2.36,17.48,0,26.68,7.11.6,1.78.3,5.33-.92,10.67-2.46,11.26-4,24.3-4.6,39.11,7.97-1.78,17.78-4.14,29.44-7.11,6.12-1.78,10.42-2.96,12.88-3.56,7.36-1.18,14.1.31,20.24,4.44,3.68,4.15,1.52,6.82-6.44,8-6.14.6-14.12,2.08-23.92,4.44-11.66,1.78-22.08,3.56-31.28,5.33,32.51,44.44,69.93,71.1,112.26,79.99,4.28,1.19,6.74,2.37,7.36,3.56,0,1.19-2.16,2.08-6.44,2.67-22.7,1.78-36.81,2.37-42.33,1.78-6.76-.58-11.66-2.96-14.72-7.11-9.2-10.67-20.24-24-33.13-40-9.82-12.44-17.8-22.22-23.92-29.33,0,7.11.3,22.82.92,47.11.6,16,.92,29.04.92,39.11,0,19.55-2.16,29.91-6.44,31.11-4.3-1.19-7.68-7.42-10.12-18.66,0-1.18.3-3.25.92-6.22,4.9-18.96,6.44-51.55,4.6-97.77-14.72,42.66-43.25,74.37-85.57,95.1-3.68,1.78-5.84,2.37-6.44,1.78-.62-.58.92-2.07,4.6-4.44,38.65-27.84,64.41-59.84,77.29-95.99-12.88,2.97-24.84,4.15-35.89,3.56-14.72-1.18-17.18-3.25-7.36-6.22,19.01-2.96,36.49-6.22,52.45-9.78.6-25.47-2.46-42.95-9.2-52.44-1.24-2.36-1.84-4.44-1.84-6.22Z"/>
  <path d="M376.92,333.9c8.58-2.36,17.48,0,26.68,7.11.6,1.78.3,5.33-.92,10.67-2.46,11.26-4,24.3-4.6,39.11,7.97-1.78,17.78-4.14,29.44-7.11,6.12-1.78,10.42-2.96,12.88-3.56,7.36-1.18,14.1.31,20.24,4.44,3.68,4.15,1.52,6.82-6.44,8-6.14.6-14.12,2.08-23.92,4.44-11.66,1.78-22.08,3.56-31.28,5.33,32.51,44.44,69.93,71.1,112.26,79.99,4.28,1.19,6.74,2.37,7.36,3.56,0,1.19-2.16,2.08-6.44,2.67-22.7,1.78-36.81,2.37-42.33,1.78-6.76-.58-11.66-2.96-14.72-7.11-9.2-10.67-20.24-24-33.13-40-9.82-12.44-17.8-22.22-23.92-29.33,0,7.11.3,22.82.92,47.11.6,16,.92,29.04.92,39.11,0,19.55-2.16,29.91-6.44,31.11-4.3-1.19-7.68-7.42-10.12-18.66,0-1.18.3-3.25.92-6.22,4.9-18.96,6.44-51.55,4.6-97.77-14.72,42.66-43.25,74.37-85.57,95.1-3.68,1.78-5.84,2.37-6.44,1.78-.62-.58.92-2.07,4.6-4.44,38.65-27.84,64.41-59.84,77.29-95.99-12.88,2.97-24.84,4.15-35.89,3.56-14.72-1.18-17.18-3.25-7.36-6.22,19.01-2.96,36.49-6.22,52.45-9.78.6-25.47-2.46-42.95-9.2-52.44-1.24-2.36-1.84-4.44-1.84-6.22Z"/>
</svg>