<?xml version="1.0" encoding="utf-8"?>
<!-- Generator: Adobe Illustrator 16.0.0, SVG Export Plug-In . SVG Version: 6.00 Build 0)  -->
<!DOCTYPE svg PUBLIC "-//W3C//DTD SVG 1.1//EN" "http://www.w3.org/Graphics/SVG/1.1/DTD/svg11.dtd">
<svg version="1.1" id="图层_1" xmlns="http://www.w3.org/2000/svg" xmlns:xlink="http://www.w3.org/1999/xlink" x="0px" y="0px"
	 width="1000px" height="1000px" viewBox="0 0 1000 1000" enable-background="new 0 0 1000 1000" xml:space="preserve">
<path d="M342.309,86.281c39.023-4.669,71.522,5.878,97.559,31.641c-2.622,9.394-14.329,24.609-35.121,45.703
	c-26.036,21.094-46.828,41.034-62.438,59.766c80.607-4.669,136.582-18.731,167.801-42.188c7.805-4.669,14.268-7.031,19.512-7.031
	c49.389,9.394,75.425,26.972,78.047,52.734c0,2.362-3.902,5.878-11.707,10.547c-44.268,18.787-94.998,60.975-152.191,126.563
	c67.62-11.7,118.351-23.4,152.191-35.156c7.805-4.669,14.268-7.031,19.512-7.031c62.438,7.031,97.559,28.125,105.363,63.281
	c0,2.362-3.902,7.031-11.707,14.063c-15.609,14.063-24.756,29.334-27.316,45.703c-2.622,9.394-5.244,23.456-7.805,42.188
	c-13.049,58.612-23.414,96.131-31.219,112.5c-18.231,25.818-31.219,38.672-39.023,38.672c-10.427,0-18.231-12.854-23.414-38.672
	l-140.484,17.578c-5.244,82.068,10.365,130.078,46.828,144.141c31.219,14.063,75.425,21.094,132.68,21.094
	c62.438-2.307,107.924-11.7,136.582-28.125c25.975-23.4,45.486-65.588,58.535-126.563c2.561-14.063,5.183-21.094,7.805-21.094
	c2.561,2.362,5.183,10.547,7.805,24.609c2.561,37.519,10.365,72.675,23.414,105.469c2.561,14.063,3.902,23.456,3.902,28.125
	c-23.414,39.825-96.278,63.281-218.531,70.313c-109.266,2.307-180.85-15.271-214.629-52.734
	c-23.414-25.763-32.561-79.65-27.316-161.719l-117.07,14.063c-2.622,35.156-10.427,52.734-23.414,52.734
	c-13.048-7.031-23.414-26.916-31.219-59.766c-13.048-98.438-32.56-173.419-58.535-225c-5.243-9.338-6.524-16.369-3.902-21.094
	c2.562-4.669,28.597-2.307,78.047,7.031c-5.243-2.307-2.622-2.307,7.805,0l163.898-21.094l85.852-126.563
	c-13.049,2.362-31.219,4.725-54.633,7.031c-26.036,2.362-52.072,4.725-78.047,7.031c-5.244,0-15.609-3.516-31.219-10.547
	c-2.622-2.307-5.243-3.516-7.805-3.516c-46.828,49.219-101.461,90.253-163.898,123.047c-23.414,9.394-35.121,12.909-35.121,10.547
	c-2.622-4.669,6.464-15.216,27.316-31.641C285.054,228.115,347.491,146.047,342.309,96.828
	C339.687,92.159,339.687,88.644,342.309,86.281z M244.75,409.719l31.219,200.391l120.973-14.063l3.902-84.375
	c-28.658,2.362-49.45,3.516-62.438,3.516c-20.853,0-37.743-3.516-50.73-10.547c-7.805-4.669-1.341-9.338,19.512-14.063
	c25.975-2.307,57.193-7.031,93.656-14.063c2.561-18.731-1.342-45.703-11.707-80.859v-3.516L244.75,409.719z M599.863,371.047
	c-7.805-4.669-44.268-2.307-109.266,7.031c-36.463,4.725-61.157,7.031-74.145,7.031c23.414,11.756,36.401,21.094,39.023,28.125
	c2.561,4.725,2.561,11.756,0,21.094c-5.244,9.394-7.805,19.94-7.805,31.641c5.183,0,11.707-1.153,19.512-3.516
	c25.975-4.669,48.108-7.031,66.34-7.031c25.975,2.362,39.023,7.031,39.023,14.063c0,9.394-11.707,16.425-35.121,21.094
	c-2.622,0-6.524,1.209-11.707,3.516c-20.854,4.725-49.45,9.394-85.852,14.063v84.375l144.387-21.094
	C618.033,444.875,623.277,378.078,599.863,371.047z"/>
</svg>
