<?xml version="1.0" encoding="utf-8"?>
<!-- Generator: Adobe Illustrator 16.0.0, SVG Export Plug-In . SVG Version: 6.00 Build 0)  -->
<!DOCTYPE svg PUBLIC "-//W3C//DTD SVG 1.1//EN" "http://www.w3.org/Graphics/SVG/1.1/DTD/svg11.dtd">
<svg version="1.1" id="图层_1" xmlns="http://www.w3.org/2000/svg" xmlns:xlink="http://www.w3.org/1999/xlink" x="0px" y="0px"
	 width="1000px" height="1000px" viewBox="0 0 1000 1000" enable-background="new 0 0 1000 1000" xml:space="preserve">
<path d="M669.203,180.656c36.401,18.786,52.011,34.003,46.828,45.703c-10.427,14.063-19.512,31.641-27.316,52.734
	c7.805,0,16.89-2.308,27.316-7.031c15.609-4.669,27.316-5.823,35.121-3.516c31.219,9.394,46.828,22.302,46.828,38.672
	c-5.243,2.362-15.609,2.362-31.219,0c-31.219-2.308-59.876-1.153-85.852,3.516c-18.231,46.911-31.219,77.344-39.023,91.406
	c41.585-4.669,91.034-12.854,148.289-24.609c36.401-7.031,61.097-10.547,74.145-10.547c67.62,7.031,98.839,25.817,93.656,56.25
	c-7.805,4.724-26.036,5.878-54.633,3.516c-75.485-4.669-166.521-4.669-273.164,0c31.219,14.063,42.926,29.333,35.121,45.703
	c-5.243,14.063-7.805,28.125-7.805,42.188c25.976-7.031,46.828-12.854,62.438-17.578c39.023-2.308,55.913,7.031,50.73,28.125
	c-5.243,2.362-19.512,4.724-42.926,7.031c-28.657,4.724-52.071,8.239-70.242,10.547c0,28.125,0,56.25,0,84.375
	c39.023-9.339,78.047-16.37,117.07-21.094c44.206,0,64.999,14.063,62.438,42.188c-2.622,2.362-11.707,2.362-27.316,0
	c-46.828-2.308-97.559,0-152.191,7.031c0,46.911,0,96.13,0,147.656c0,51.525-7.805,84.375-23.414,98.438
	c-18.231,4.669-26.036-26.972-23.414-94.922c0-65.589,0-113.653,0-144.141c-59.876,7.031-101.461,19.94-124.875,38.672
	c-13.048,9.394-24.755,7.031-35.121-7.031c-15.609-21.094-16.95-33.948-3.902-38.672c28.597-16.37,40.304-38.672,35.121-66.797
	c18.171-18.731,35.121-10.547,50.73,24.609c-5.243,9.394-10.427,18.786-15.609,28.125c-5.243,2.362-7.805,4.724-7.805,7.031
	c-2.622,2.362,16.89,0,58.535-7.031c23.414-4.669,37.683-7.031,42.926-7.031c-2.622,0-3.902-29.278-3.902-87.891
	c-7.805,0-18.231,2.362-31.219,7.031c-18.231,4.724-29.938,5.878-35.121,3.516c-41.646-7.031-53.353-14.063-35.121-21.094
	c5.183,0,18.171-1.153,39.023-3.516c33.78-4.669,54.633-8.185,62.438-10.547c2.562-56.25-3.902-86.683-19.512-91.406
	c-83.29,2.362-174.325,9.394-273.164,21.094c49.39,21.094,67.62,35.156,54.633,42.188c-10.427,4.724-22.134,14.063-35.121,28.125
	c-5.243,4.724-9.146,8.239-11.707,10.547c23.414,2.362,49.39-4.669,78.047-21.094c10.366-4.669,27.316,1.208,50.73,17.578
	c20.792,14.063,24.694,23.456,11.707,28.125c-10.427,2.362-28.657,21.094-54.633,56.25c-13.048,18.786-23.414,32.849-31.219,42.188
	c-52.071,68.005-119.692,119.531-202.922,154.688c-31.219,14.063-48.169,19.885-50.73,17.578c0-7.031,14.269-17.578,42.926-31.641
	c124.875-86.683,199.02-168.75,222.434-246.094c-5.243-4.669-13.048-4.669-23.414,0c-18.231,7.031-36.462,4.724-54.633-7.031
	l-50.73,49.219c28.597,9.394,45.487,18.786,50.73,28.125c10.366,25.817,6.464,42.188-11.707,49.219
	c-13.048,2.362-29.938-21.094-50.73-70.313c-2.622,2.362-6.524,5.878-11.707,10.547c-23.414,14.063-40.364,23.456-50.73,28.125
	c-18.231,7.031-28.657,10.547-31.219,10.547c-2.622-2.308,2.562-9.339,15.609-21.094c93.656-67.95,135.241-125.354,124.875-172.266
	c-15.609,0-46.828,5.878-93.656,17.578c-49.45,11.755-81.949,16.425-97.559,14.063c-52.071-16.37-67.681-29.278-46.828-38.672
	c96.218-4.669,188.593-11.7,277.066-21.094c-5.243-11.7-9.146-32.794-11.707-63.281c-2.622-9.339-3.902-15.216-3.902-17.578
	c-5.243,0-15.609,2.362-31.219,7.031c-15.609,4.724-24.755,7.031-27.316,7.031c-39.023-18.731-49.45-30.433-31.219-35.156
	c20.792,2.362,48.108,1.208,81.949-3.516c-7.805-25.763-15.609-44.495-23.414-56.25c-2.622-18.731,3.902-25.763,19.512-21.094
	c23.414,9.394,39.023,22.302,46.828,38.672c0,14.063,0,25.817,0,35.156l66.34-7.031c0-35.156-6.524-58.558-19.512-70.313
	c-7.805-9.339-10.427-16.37-7.805-21.094c2.562-2.308,10.366-2.308,23.414,0c36.401,7.031,52.011,18.786,46.828,35.156
	c0,7.031-1.341,17.578-3.902,31.641c0,9.394,0,15.271,0,17.578c23.414-2.308,45.487-4.669,66.34-7.031
	c-2.622-46.856-7.805-74.981-15.609-84.375c-5.243-7.031-6.524-11.7-3.902-14.063c0-2.308,6.464-3.516,19.512-3.516
	c2.562,0,6.464,0,11.707,0c31.219,2.362,44.206,9.394,39.023,21.094c-7.805,25.817-13.048,52.734-15.609,80.859
	c33.78-4.669,62.438-8.185,85.852-10.547c10.366-44.495,11.707-72.62,3.902-84.375c-5.243-9.339-6.524-17.578-3.902-24.609
	C650.972,174.833,658.776,175.987,669.203,180.656z M396.039,89.25c41.585,7.031,62.438,15.271,62.438,24.609
	c-13.048,16.425-32.56,36.364-58.535,59.766c59.815-7.031,126.155-18.731,199.02-35.156c39.023-9.339,66.34-15.216,81.949-17.578
	c44.206,0,59.815,9.394,46.828,28.125c-72.864,21.094-167.801,34.003-284.871,38.672c-20.853,0-39.023-2.308-54.633-7.031
	c-36.462,28.125-70.242,49.219-101.461,63.281c-31.219,11.755-48.169,16.425-50.73,14.063c-2.622-4.669,9.085-16.37,35.121-35.156
	c70.242-49.219,105.363-87.891,105.363-116.016c-5.243-7.031-6.524-11.7-3.902-14.063C375.187,90.458,382.991,89.25,396.039,89.25z
	 M423.355,335.344l-70.242,7.031c0,11.755,1.28,25.817,3.902,42.188c0,25.817,1.28,38.672,3.902,38.672l66.34-7.031
	C422.015,376.378,420.733,349.406,423.355,335.344z M524.816,324.797c-26.036-2.308-48.169,0-66.34,7.031
	c-2.622,49.219-2.622,76.19,0,80.859l66.34-3.516V324.797z M637.984,314.25c-36.462,2.362-62.438,4.724-78.047,7.031
	c0,14.063-1.341,30.487-3.902,49.219c0,21.094-1.341,32.849-3.902,35.156c15.609,0,33.78-1.153,54.633-3.516
	C617.132,385.771,627.558,356.438,637.984,314.25z"/>
</svg>
