<?xml version="1.0" encoding="utf-8"?>
<!-- Generator: Adobe Illustrator 16.0.0, SVG Export Plug-In . SVG Version: 6.00 Build 0)  -->
<!DOCTYPE svg PUBLIC "-//W3C//DTD SVG 1.1//EN" "http://www.w3.org/Graphics/SVG/1.1/DTD/svg11.dtd">
<svg version="1.1" id="图层_1" xmlns="http://www.w3.org/2000/svg" xmlns:xlink="http://www.w3.org/1999/xlink" x="0px" y="0px"
	 width="1000px" height="1000px" viewBox="0 0 1000 1000" enable-background="new 0 0 1000 1000" xml:space="preserve">
<path d="M162.899,165.078c153.472-2.308,334.26-23.401,542.425-63.281c18.171-2.308,28.598-3.516,31.219-3.516
	c72.804,2.362,105.363,19.94,97.559,52.734c-7.805,2.362-27.316,3.516-58.535,3.516c-91.095,2.362-199.02,8.239-323.895,17.578
	c41.585,18.786,53.292,31.641,35.121,38.672c-28.657,14.063-54.633,31.641-78.047,52.734
	c91.035-9.339,154.753-22.247,191.215-38.672c59.816,7.031,94.938,26.972,105.363,59.766
	c-20.853,18.786-32.56,53.942-35.121,105.469c0,4.724,0,8.239,0,10.547c-7.805,70.313-24.755,111.347-50.73,123.047
	c-5.243,2.362-11.707-3.516-19.512-17.578c-5.243-9.339-9.146-15.216-11.707-17.578c-23.414,2.362-89.754,11.755-199.02,28.125
	c31.219,18.786,42.926,31.641,35.121,38.672c-10.426,7.031-22.133,17.578-35.121,31.641c36.402,2.362,98.84-11.7,187.313-42.188
	c15.609-4.669,40.305,1.208,74.145,17.578c25.976,18.786,32.5,31.641,19.512,38.672c-18.23,7.031-45.547,31.641-81.949,73.828
	c-15.609,16.425-27.316,29.333-35.121,38.672c7.805,4.724,19.512,10.547,35.121,17.578c36.402,18.786,62.438,31.641,78.047,38.672
	c72.804,28.125,158.655,45.703,257.555,52.734c28.598,4.669,44.207,9.338,46.828,14.063c0,4.669-13.048,9.338-39.023,14.063
	c-109.266,23.4-176.946,31.641-202.922,24.609c-13.048-4.725-35.121-18.787-66.34-42.188
	c-46.828-32.794-93.656-63.281-140.484-91.406c-80.668,53.942-169.142,84.375-265.359,91.406c-36.462,2.307-55.974,2.307-58.535,0
	c0-4.725,15.609-10.547,46.828-17.578c88.413-14.063,167.801-45.703,238.043-94.922c-54.633-44.495-104.082-71.466-148.289-80.859
	c-78.047,79.706-161.337,134.802-249.75,165.234c-26.036,7.031-41.645,8.185-46.828,3.516c0-2.308,11.707-9.339,35.121-21.094
	c137.863-72.62,231.519-160.511,280.968-263.672l-3.902-7.031c-7.805,9.394-15.609,11.755-23.414,7.031
	c-7.805-4.669-13.048-12.854-15.609-24.609c0-9.339,1.281-31.641,3.902-66.797c0-14.063,0-22.247,0-24.609
	c-2.621-65.589-10.426-105.469-23.414-119.531c-7.805-9.339-11.707-16.37-11.707-21.094c2.562-4.669,9.086-5.823,19.512-3.516
	c15.609,2.362,32.5,5.878,50.73,10.547c0-2.308,3.902-3.516,11.707-3.516l11.707-3.516c36.402-44.495,52.012-74.981,46.828-91.406
	c-119.691,23.456-184.751,31.641-195.117,24.609C149.851,183.864,129.059,172.109,162.899,165.078z M580.449,590.469
	c-2.621-4.669-36.462-1.153-101.461,10.547c-39.023,4.724-59.876,7.031-62.438,7.031c-2.621-2.308-9.146-4.669-19.512-7.031
	c-7.805-4.669-14.328-7.031-19.512-7.031l-27.316,28.125c41.585,9.394,94.938,32.849,159.996,70.313
	C557.035,643.203,580.449,609.255,580.449,590.469z M607.766,267.031c-7.805-4.669-76.766,2.362-206.824,21.094
	c-23.414,4.724-39.023,7.031-46.828,7.031c2.562,4.724,3.902,22.302,3.902,52.734c78.047-16.37,123.534-25.763,136.582-28.125
	c52.012-11.7,76.706-8.185,74.145,10.547c-54.633,23.456-124.875,35.156-210.727,35.156c0,11.755,0,29.333,0,52.734
	c28.598,0,66.34-5.823,113.168-17.578c15.609-2.308,25.976-4.669,31.219-7.031c57.194-4.669,79.328,2.362,66.34,21.094
	c-80.668,18.786-150.91,26.972-210.727,24.609v56.25c33.78-2.308,97.559-11.7,191.215-28.125c5.184-2.308,9.086-3.516,11.707-3.516
	c2.562,0,7.805,1.208,15.609,3.516c12.988,4.724,20.793,5.878,23.414,3.516c10.366-18.731,16.891-60.919,19.512-126.563
	C622.034,299.88,618.132,274.063,607.766,267.031z"/>
</svg>
