<?xml version="1.0" encoding="utf-8"?>
<!-- Generator: Adobe Illustrator 16.0.0, SVG Export Plug-In . SVG Version: 6.00 Build 0)  -->
<!DOCTYPE svg PUBLIC "-//W3C//DTD SVG 1.1//EN" "http://www.w3.org/Graphics/SVG/1.1/DTD/svg11.dtd">
<svg version="1.1" id="图层_1" xmlns="http://www.w3.org/2000/svg" xmlns:xlink="http://www.w3.org/1999/xlink" x="0px" y="0px"
	 width="1000px" height="1000px" viewBox="0 0 1000 1000" enable-background="new 0 0 1000 1000" xml:space="preserve">
<path d="M254.555,143.016c52.011,11.756,80.608,36.365,85.852,73.828c-13.048,7.031-36.462,34.003-70.242,80.859
	c-26.036,37.519-46.828,66.797-62.438,87.891c20.792,14.063,32.499,26.972,35.121,38.672c0,7.031,0,19.94,0,38.672
	c-2.622,32.85-5.243,66.797-7.805,101.953c-2.622,194.568-13.048,283.557-31.219,267.188c-13.048-2.362-24.755-18.787-35.121-49.219
	c0-9.338,2.562-23.4,7.805-42.188c10.366-42.188,16.89-98.438,19.512-168.75c7.805-98.438,5.183-153.479-7.805-165.234
	c-62.438,72.675-115.79,119.531-159.996,140.625c-10.427,7.031-16.95,9.394-19.512,7.031c0-4.669,3.902-11.7,11.707-21.094
	C108.827,453.6,176.508,359.831,223.336,252c15.609-32.794,22.073-62.072,19.512-87.891
	C242.848,152.409,246.75,145.378,254.555,143.016z M500.402,79.734c28.597-4.669,62.438,10.547,101.461,45.703
	c2.562,4.725,2.562,10.547,0,17.578C583.632,185.203,573.206,252,570.645,343.406c31.219-7.031,62.438-15.216,93.656-24.609
	c23.414-7.031,41.585-11.7,54.633-14.063c25.976-4.669,52.011,0,78.047,14.063c18.171,14.063,12.987,23.456-15.609,28.125
	c-23.414,4.725-94.997,15.271-214.629,31.641v45.703c109.266,121.894,243.226,199.237,401.941,232.031
	c28.597,7.031,25.976,14.063-7.805,21.094h-7.805c-13.048,0-29.938,1.209-50.73,3.516c-83.29,11.756-131.399,8.24-144.387-10.547
	c-49.45-44.494-114.509-119.531-195.117-225c0,16.425,1.28,39.881,3.902,70.313c5.183,126.563,6.464,221.484,3.902,284.766
	c2.562,49.219-7.805,76.135-31.219,80.859c-15.609-11.756-27.316-37.519-35.121-77.344c0-7.031,1.28-21.094,3.902-42.188
	c15.609-82.013,22.073-193.359,19.512-333.984c-46.828,133.594-124.875,228.516-234.141,284.766
	c-36.462,16.425-49.45,18.787-39.023,7.031c98.839-77.344,183.41-185.119,253.652-323.438c-26.036,2.362-54.633,7.031-85.852,14.063
	c-18.231,4.725-31.219,7.031-39.023,7.031c-67.681-7.031-89.754-15.216-66.34-24.609c25.976-4.669,76.706-14.063,152.191-28.125
	c25.976-4.669,45.487-8.185,58.535-10.547c5.183-126.563-3.902-212.091-27.316-256.641
	C495.159,87.975,495.159,82.097,500.402,79.734z"/>
</svg>
