<?xml version="1.0" encoding="utf-8"?>
<!-- Generator: Adobe Illustrator 16.0.0, SVG Export Plug-In . SVG Version: 6.00 Build 0)  -->
<!DOCTYPE svg PUBLIC "-//W3C//DTD SVG 1.1//EN" "http://www.w3.org/Graphics/SVG/1.1/DTD/svg11.dtd">
<svg version="1.1" id="图层_1" xmlns="http://www.w3.org/2000/svg" xmlns:xlink="http://www.w3.org/1999/xlink" x="0px" y="0px"
	 width="1000px" height="1000px" viewBox="0 0 1000 1000" enable-background="new 0 0 1000 1000" xml:space="preserve">
<path d="M264.164,487.484c31.219-9.338,61.096,1.208,89.754,31.641c0,4.724-2.622,10.547-7.805,17.578
	c-7.805,9.393-11.707,22.302-11.707,38.672c-2.622,9.393-3.902,22.302-3.902,38.672c-2.622,14.063-3.902,25.818-3.902,35.156
	c5.183-4.669,11.707-9.338,19.512-14.063c12.987-11.7,27.316-23.401,42.926-35.156c5.183-7.031,7.805-16.37,7.805-28.125
	c0-7.031,1.28-11.7,3.902-14.063c39.023,2.362,62.438,14.063,70.242,35.156c-2.622,4.724-15.609,11.755-39.023,21.094
	c-39.023,16.425-75.486,32.849-109.266,49.219c0,4.724-2.622,11.755-7.805,21.094c-2.622,4.724-3.902,9.393-3.902,14.063
	c7.805,4.724,18.17,10.547,31.219,17.578c36.401,16.425,59.815,30.487,70.242,42.188c15.609,16.425,16.89,30.487,3.902,42.188
	c-15.609,9.393-32.561,5.878-50.73-10.547c-20.854-18.732-41.646-42.188-62.438-70.313
	c-72.864,84.375-140.484,121.838-202.922,112.5c117.07-58.557,176.886-141.779,179.508-249.609
	c2.561-30.432-2.622-57.404-15.609-80.859C261.542,494.515,261.542,489.846,264.164,487.484z M127.582,585.922
	c-15.609-32.794,14.268-24.609,89.754,24.609c10.365,16.425,10.365,31.641,0,45.703c-10.427,9.393-23.414,8.24-39.023-3.516
	c-10.427-9.338-26.036-29.279-46.828-59.766C128.862,590.646,127.582,588.284,127.582,585.922z M650.496,357.406
	c70.242,39.88,131.338,66.797,183.41,80.859c12.987,4.724,19.512,9.393,19.512,14.063c0,4.724-7.805,7.031-23.414,7.031
	c-78.047,7.031-122.314,8.24-132.68,3.516c-15.609,0-31.219-9.338-46.828-28.125c-36.463-35.156-93.656-86.682-171.703-154.688
	c0,2.362-1.342,5.878-3.902,10.547c0,4.724-1.342,8.24-3.902,10.547c-26.036,75.037-110.607,132.44-253.652,172.266
	c-62.438,14.063-71.584,11.755-27.316-7.031c158.654-49.219,240.604-140.625,245.848-274.219
	c2.561-25.763-1.342-48.01-11.707-66.797c-5.244-7.031-6.524-11.7-3.902-14.063c28.597-9.338,61.096-1.154,97.559,24.609
	c0,4.724-1.342,9.393-3.902,14.063c-7.805,9.393-13.049,22.302-15.609,38.672c0,7.031-3.902,24.609-11.707,52.734
	c-2.622,7.031-3.902,11.755-3.902,14.063c28.597,18.787,76.705,48.065,144.387,87.891
	C637.447,350.375,645.252,355.099,650.496,357.406z M221.238,216.781c0-23.401,33.779-15.216,101.461,24.609
	c12.987,18.787,15.609,34.003,7.805,45.703c-13.049,16.425-27.316,19.94-42.926,10.547
	C271.969,285.94,249.835,258.969,221.238,216.781z M552.938,452.328c31.219,0,59.815,11.755,85.852,35.156
	c2.561,2.362,2.561,7.031,0,14.063c-7.805,11.755-13.049,24.609-15.609,38.672c-2.622,16.425-5.244,36.365-7.805,59.766
	c-2.622,16.425-3.902,26.971-3.902,31.641c39.023,37.518,88.412,77.344,148.289,119.531c39.023,28.125,98.839,55.096,179.508,80.859
	c15.609,4.669,22.072,9.338,19.512,14.063c0,2.307-7.805,4.669-23.414,7.031c-80.669,7.031-124.875,8.185-132.68,3.516
	c-15.609,0-31.219-9.393-46.828-28.125c-20.854-16.37-63.779-62.073-128.777-137.109c-7.805-11.7-14.329-19.885-19.512-24.609
	c-15.609,84.375-81.949,145.349-199.02,182.813c-52.072,11.7-58.535,8.185-19.512-10.547
	C511.292,803.89,569.827,699.63,564.645,526.156c0-18.732-3.902-36.31-11.707-52.734
	C550.315,464.083,550.315,457.052,552.938,452.328z M451.477,642.172c-15.609-25.763,6.463-23.401,66.34,7.031
	c10.365,9.393,12.987,22.302,7.805,38.672c-7.805,7.031-18.231,5.878-31.219-3.516c-7.805-4.669-16.951-12.854-27.316-24.609
	C461.842,652.719,456.659,646.896,451.477,642.172z M701.227,160.531c33.779,2.362,61.096,17.578,81.949,45.703
	c-2.622,4.724-9.146,8.24-19.512,10.547c-18.231,4.724-33.841,10.547-46.828,17.578c-111.888,53.943-153.533,66.797-124.875,38.672
	c28.597-18.732,55.913-39.825,81.949-63.281c10.365-7.031,15.609-17.578,15.609-31.641
	C692.08,168.771,695.982,162.893,701.227,160.531z M755.859,550.765c33.779,7.031,55.913,24.609,66.34,52.734
	c-2.622,4.724-10.427,8.24-23.414,10.547c-7.805,2.362-14.329,4.724-19.512,7.031c-93.656,35.156-115.79,34.003-66.34-3.516
	c12.987-9.338,20.792-16.37,23.414-21.094c5.183-7.031,7.805-16.37,7.805-28.125C744.152,559.005,748.055,553.127,755.859,550.765z"
	/>
</svg>
