<?xml version="1.0" encoding="utf-8"?>
<!-- Generator: Adobe Illustrator 16.0.0, SVG Export Plug-In . SVG Version: 6.00 Build 0)  -->
<!DOCTYPE svg PUBLIC "-//W3C//DTD SVG 1.1//EN" "http://www.w3.org/Graphics/SVG/1.1/DTD/svg11.dtd">
<svg version="1.1" id="图层_1" xmlns="http://www.w3.org/2000/svg" xmlns:xlink="http://www.w3.org/1999/xlink" x="0px" y="0px"
	 width="1000px" height="1000px" viewBox="0 0 1000 1000" enable-background="new 0 0 1000 1000" xml:space="preserve">
<path d="M295.578,336.312c41.585,7.031,67.621,19.94,78.047,38.672c0,2.362-3.902,7.031-11.707,14.063
	c-18.23,14.063-33.84,30.487-46.828,49.219c-2.621,4.724-9.146,15.271-19.512,31.641c-7.805,16.425-14.328,28.125-19.512,35.156
	l11.707,10.547c44.207-11.7,80.608-9.338,109.266,7.031c20.793,28.125,19.512,48.065-3.902,59.766
	c-5.243,0-22.133-8.185-50.73-24.609c-20.853-14.063-39.023-24.609-54.633-31.641c7.805,44.55,7.805,124.255,0,239.063
	c-2.621,44.55-11.707,69.104-27.316,73.828c-18.23-16.425-29.938-36.31-35.121-59.766c0-2.307,1.281-7.031,3.902-14.063
	c18.17-32.794,27.316-112.5,27.316-239.063c-62.437,98.438-128.777,167.596-199.019,207.422
	c-20.853,14.063-33.84,19.94-39.023,17.578c-5.244-4.669,1.281-15.216,19.512-31.641c101.461-93.713,179.508-199.182,234.14-316.406
	c-28.657,7.031-62.437,18.787-101.46,35.156c-31.219,11.755-53.352,18.787-66.34,21.094c-13.048-2.307-29.938-8.185-50.73-17.578
	c-15.609-7.031-23.414-12.854-23.414-17.578c2.561-4.669,14.268-8.185,35.121-10.547c111.827-9.338,184.691-32.794,218.531-70.313
	C289.055,338.674,292.957,336.312,295.578,336.312z M213.629,153.5c39.023-7.031,80.608-2.307,124.875,14.063
	c33.78,18.787,39.023,44.55,15.609,77.344C299.48,237.875,252.652,207.443,213.629,153.5z M717.031,202.719
	c59.816,18.787,97.559,39.88,113.168,63.281c0,2.362-3.902,5.878-11.707,10.547c-33.84,23.456-63.778,53.943-89.754,91.406
	c20.793,14.063,28.598,24.609,23.414,31.641c-2.621,2.362-14.328,4.724-35.121,7.031c-28.657,2.362-54.633,4.724-78.047,7.031
	c2.562,2.362,6.464,4.724,11.707,7.031c28.598,16.425,42.926,29.333,42.926,38.672c0,2.362-1.341,8.24-3.902,17.578
	c-7.805,25.818-13.048,46.912-15.609,63.281c0,2.362,0,5.878,0,10.547c-5.243,77.344-5.243,121.893,0,133.594
	c31.219,39.88,102.742,43.396,214.629,10.547c15.609-9.338,32.5-40.979,50.73-94.922c2.562-2.307,3.902-4.669,3.902-7.031
	c7.805-25.763,12.988-37.463,15.609-35.156c2.562-2.307,5.184,9.393,7.805,35.156c0,28.125,3.902,56.25,11.707,84.375
	c5.184,18.787,6.464,31.641,3.902,38.672c-18.23,32.849-83.29,50.427-195.117,52.734c-124.875,4.724-178.227-50.372-159.996-165.234
	c15.609-110.138,12.988-171.057-7.805-182.813l-85.852,10.547c2.562,14.063,0,22.302-7.805,24.609
	c39.023,18.787,57.194,32.849,54.633,42.188c0,2.362-2.621,7.031-7.805,14.063c-15.609,18.787-29.938,41.034-42.926,66.797
	c-36.462,60.974-87.192,110.193-152.191,147.656c-28.657,11.755-45.547,17.578-50.73,17.578c-7.805,0-1.341-7.031,19.512-21.094
	c114.449-86.682,171.703-174.573,171.703-263.672c-10.426-4.669-22.133-32.794-35.121-84.375
	c-13.048-42.188-29.938-74.982-50.73-98.438c-5.243-7.031-6.523-11.7-3.902-14.063c2.562-7.031,20.793-9.338,54.633-7.031
	c12.988,2.362,22.073,3.516,27.316,3.516c91.035-14.063,154.753-30.432,191.215-49.219
	C709.227,205.081,714.41,202.719,717.031,202.719z M709.227,258.969c-10.426-7.031-61.156-1.154-152.191,17.578
	c-28.657,4.724-46.828,8.24-54.633,10.547c0,2.362,1.281,7.031,3.902,14.063c10.366,46.912,19.512,82.068,27.316,105.469
	c93.656-16.37,144.387-28.125,152.191-35.156C709.227,310.549,717.031,273.031,709.227,258.969z"/>
</svg>
