<?xml version="1.0" encoding="UTF-8"?>
<svg id="_图层_1" data-name="图层_1" xmlns="http://www.w3.org/2000/svg" version="1.1" viewBox="0 0 256 256">
  <!-- Generator: Adobe Illustrator 29.4.0, SVG Export Plug-In . SVG Version: 2.1.0 Build 152)  -->
  <defs>
    <style>
      .st0 {
        fill: #FF0000;
      }
    </style>
  </defs>
  <path class="st0" d="M100.81,156.32c-10.52,6.16-15.17,18.57-15.39,30.28-.06,3.24.05,6.78,1.07,9.88,1.11,3.35,3.44,5.87,6.42,7.69,5.97,3.65,13.11,4.8,19.24,8.13,5.34,2.91,10.85,8.86,8.67,15.41-1.02,3.06,3.81,4.37,4.82,1.33,2.05-6.16-.88-12.66-5.32-16.97-5.01-4.87-11.92-6.85-18.3-9.23-2.84-1.06-5.98-2.16-8.28-4.2s-2.95-4.8-3.19-7.79c-.43-5.59.18-11.23,2.04-16.53,1.97-5.62,5.56-10.65,10.75-13.69,2.77-1.63.26-5.95-2.52-4.32h0Z"/>
  <path class="st0" d="M123.21,224.89c-.22-.08-.44-.17-.66-.26l.6.25c-1.48-.63-2.88-1.44-4.16-2.42l.51.39c-.78-.6-1.5-1.26-2.18-1.97-.9-.95-2.64-.98-3.54,0s-.96,2.52,0,3.54c2.26,2.38,5.04,4.14,8.1,5.29.57.22,1.42.05,1.93-.25s1.01-.9,1.15-1.49c.15-.64.11-1.36-.25-1.93s-.85-.91-1.49-1.15h0Z"/>
  <path class="st0" d="M124.6,230.91c1.65-.4,3.16-1.27,4.42-2.4s2.17-2.61,2.76-4.2c.21-.58.05-1.41-.25-1.93s-.9-1.01-1.49-1.15c-.64-.15-1.36-.11-1.93.25s-.91.85-1.15,1.49c-.05.13-.09.25-.15.37l.25-.6c-.25.59-.58,1.14-.97,1.65l.39-.51c-.43.55-.92,1.04-1.47,1.46l.51-.39c-.53.4-1.11.74-1.72,1l.6-.25c-.37.15-.75.28-1.14.37-.6.15-1.19.62-1.49,1.15s-.45,1.33-.25,1.93c.43,1.32,1.71,2.08,3.08,1.75h0Z"/>
</svg>