<?xml version="1.0" encoding="UTF-8"?>
<svg id="_图层_1" data-name="图层_1" xmlns="http://www.w3.org/2000/svg" version="1.1" viewBox="0 0 256 256">
  <!-- Generator: Adobe Illustrator 29.4.0, SVG Export Plug-In . SVG Version: 2.1.0 Build 152)  -->
  <defs>
    <style>
      .st0 {
        fill: #FF0000;
      }
      .st1 {
        fill: #0000FF;
      }
      .st2 {
        fill: #00FF00;
      }
    </style>
  </defs>
  <g id="surface1">
    <path class="st0" d="M190.77,13.43c-.32,29.21-.34,58.42-.07,87.62.08,8.24.18,16.48.31,24.71.05,3.21,5.05,3.22,5,0-.44-29.2-.59-58.41-.44-87.62.04-8.24.11-16.48.2-24.71.04-3.22-4.96-3.22-5,0Z"/>
    <path class="st0" d="M184.7,114.91c.43-.12-.44-.03-.15,0,.09,0,.45,0,.03-.02-.52-.03.08.07.09.07-.09.03-.49-.26-.19-.05.05.03.45.33.14.07-.31-.26.09.09.12.12.18.17.36.35.52.54.08.1.17.23.26.31-.12-.1-.29-.38-.08-.1.17.23.34.46.52.7.36.49.71.99,1.06,1.49,1.36,1.95,2.62,3.96,3.8,6.02.65,1.14,2.29,1.62,3.42.9,1.13-.72,1.59-2.21.9-3.42-1.34-2.34-2.79-4.61-4.36-6.81-1.73-2.42-3.97-5.62-7.43-4.63-1.26.36-2.16,1.78-1.75,3.08s1.73,2.13,3.08,1.75l.02-.02Z"/>
    <path class="st0" d="M198.24,114.1c-.13-.74.05.12-.04.25.05-.36.05-.41,0-.13-.03.12-.07.24-.11.35-.1.26-.09.23.04-.08-.05.11-.11.23-.17.34-.09.17-.19.33-.3.5-.14.22-.29.43-.44.64-.17.22-.15.21.04-.05-.08.11-.17.22-.25.32-.34.44-.69.88-1.03,1.31-1.4,1.78-2.8,3.56-4.21,5.34-.43.54-.73,1.05-.73,1.77,0,.61.27,1.35.73,1.77.9.83,2.67,1.1,3.54,0,1.59-2.01,3.17-4.03,4.76-6.04.79-1,1.66-1.99,2.26-3.12.77-1.44,1.03-2.89.75-4.5-.23-1.29-1.87-2.14-3.08-1.75-1.39.45-1.99,1.69-1.75,3.08h-.01Z"/>
  </g>
  <g id="surface11" data-name="surface1">
    <path class="st1" d="M199.45,166.65c-10.61,4.83-21.9,8.19-33.4,10.04-11.5,1.85-23.53,2.72-34.49-1.07-5.28-1.83-10.09-4.87-13.74-9.12-.88-1.02-2.63-.9-3.54,0-1.02,1.02-.88,2.51,0,3.54,7.65,8.9,19.46,12.52,30.84,13.06,6.36.3,12.75-.25,19.05-1.11s12.17-2.08,18.11-3.76c6.75-1.9,13.32-4.35,19.69-7.26,1.23-.56,1.53-2.34.9-3.42-.74-1.26-2.19-1.46-3.42-.9Z"/>
    <path class="st1" d="M125.03,162.15c-3.23.01-6.45.24-9.65.66-.69.09-1.25.22-1.77.73-.43.43-.76,1.15-.73,1.77s.24,1.32.73,1.77c.45.41,1.13.82,1.77.73,3.2-.43,6.42-.65,9.65-.66,1.31,0,2.56-1.15,2.5-2.5-.06-1.35-1.1-2.51-2.5-2.5Z"/>
    <path class="st1" d="M110.91,169.13c.14.27.26.54.38.81l-.25-.6c.43,1.03.72,2.1.88,3.21l-.09-.66c.14,1.11.15,2.22,0,3.33-.08.59.33,1.37.73,1.77.43.43,1.15.76,1.77.73.62-.03,1.32-.24,1.77-.73l.39-.51c.23-.39.34-.81.34-1.26.38-2.95-.27-5.97-1.61-8.61-.59-1.17-2.33-1.6-3.42-.9-1.19.77-1.53,2.17-.9,3.42h.01Z"/>
  </g>
  <g id="surface12" data-name="surface1">
    <path class="st2" d="M50.92,13.52c2.5,18.89,2.19,38,2.18,57.01-.01,19.01-.04,38.28-.34,57.42-.17,10.77-.41,21.54-.78,32.31-.11,3.22,4.89,3.21,5,0,.65-19.13.93-38.27,1.04-57.41s.3-38.22,0-57.32c-.17-10.7-.68-21.4-2.09-32.01-.18-1.34-1.02-2.5-2.5-2.5-1.21,0-2.68,1.15-2.5,2.5h-.01Z"/>
    <path class="st2" d="M44.52,142.02c-.31.26-1.01.49-1.42.4-.22-.05-.27-.19-.06,0-.19-.16-.15-.14,0,.02.11.11.21.22.31.33-.16-.16-.12-.18,0,.02.1.17.21.33.31.49.21.33.41.66.61.99.84,1.36,1.65,2.73,2.45,4.12,1.57,2.73,3.05,5.51,4.45,8.32.58,1.17,2.34,1.59,3.42.9,1.2-.77,1.52-2.17.9-3.42-1.71-3.42-3.53-6.79-5.48-10.08-.96-1.63-1.87-3.44-3.12-4.87-.64-.73-1.52-1.37-2.47-1.62-1.29-.35-2.44.06-3.44.88s-.93,2.68,0,3.54c1.08.99,2.45.89,3.54,0v-.02Z"/>
    <path class="st2" d="M62.42,141.54c-.65,3.17-1.96,5.64-3.46,8.52-1.5,2.88-3.07,5.93-3.84,9.17-.31,1.31.41,2.71,1.75,3.08,1.34.37,2.76-.43,3.08-1.75.74-3.11,2.11-5.61,3.61-8.49s3.02-5.95,3.69-9.2c.27-1.32-.38-2.7-1.75-3.08-1.24-.34-2.8.42-3.08,1.75Z"/>
  </g>
</svg>