<?xml version="1.0" encoding="UTF-8"?>
<svg xmlns="http://www.w3.org/2000/svg" xmlns:xlink="http://www.w3.org/1999/xlink" width="256px" height="256px" viewBox="0 0 256 256" version="1.1">
<g id="surface1">
<path style=" stroke:none;fill-rule:nonzero;fill:rgb(255,0,0);fill-opacity:1;" d="M 212.828125 135.429688 C 180.511719 135.390625 148.191406 135.351562 115.871094 135.300781 C 106.710938 135.289062 97.539062 135.28125 88.378906 135.261719 C 85.160156 135.261719 85.160156 140.261719 88.378906 140.261719 C 120.699219 140.300781 153.019531 140.339844 185.339844 140.390625 L 212.828125 140.429688 C 216.050781 140.429688 216.050781 135.429688 212.828125 135.429688 Z M 212.828125 135.429688 "/>
<path style=" stroke:none;fill-rule:nonzero;fill:rgb(255,0,0);fill-opacity:1;" d="M 96.78125 124.878906 C 92.429688 128.828125 88.210938 132.910156 84.128906 137.140625 C 83.21875 138.078125 83.121094 139.75 84.128906 140.679688 C 85.140625 141.609375 86.691406 141.679688 87.671875 140.679688 C 91.75 136.460938 95.96875 132.371094 100.320312 128.421875 C 101.289062 127.539062 101.28125 125.769531 100.320312 124.878906 C 99.28125 123.929688 97.820312 123.941406 96.78125 124.878906 Z M 96.78125 124.878906 "/>
<path style=" stroke:none;fill-rule:nonzero;fill:rgb(255,0,0);fill-opacity:1;" d="M 87.148438 140.371094 C 87.609375 140.628906 88.058594 140.910156 88.511719 141.199219 C 88.710938 141.328125 88.910156 141.46875 89.109375 141.609375 C 89.230469 141.691406 89.339844 141.78125 89.460938 141.859375 C 89.539062 141.921875 89.890625 142.179688 89.550781 141.929688 C 89.210938 141.679688 89.558594 141.941406 89.640625 142 C 89.75 142.089844 89.859375 142.179688 89.96875 142.28125 C 90.148438 142.429688 90.339844 142.589844 90.519531 142.75 C 90.910156 143.101562 91.300781 143.46875 91.671875 143.851562 C 92.039062 144.230469 92.359375 144.589844 92.691406 144.980469 C 92.859375 145.179688 93.019531 145.398438 93.191406 145.601562 C 93.058594 145.449219 92.871094 145.179688 93.109375 145.5 C 93.179688 145.601562 93.25 145.691406 93.320312 145.789062 C 93.941406 146.648438 94.5 147.550781 94.988281 148.488281 C 95.601562 149.648438 97.308594 150.101562 98.410156 149.390625 C 99.589844 148.628906 99.960938 147.210938 99.308594 145.96875 C 97.148438 141.839844 93.738281 138.351562 89.691406 136.058594 C 88.550781 135.421875 86.910156 135.75 86.269531 136.960938 C 85.628906 138.171875 85.949219 139.691406 87.171875 140.378906 Z M 87.148438 140.371094 "/>
</g>
</svg>
