<?xml version="1.0" encoding="UTF-8"?>
<svg id="_图层_1" data-name="图层_1" xmlns="http://www.w3.org/2000/svg" version="1.1" viewBox="0 0 256 256">
  <!-- Generator: Adobe Illustrator 29.4.0, SVG Export Plug-In . SVG Version: 2.1.0 Build 152)  -->
  <defs>
    <style>
      .st0 {
        fill: blue;
      }

      .st1 {
        fill: red;
      }
    </style>
  </defs>
  <g id="surface1">
    <path class="st1" d="M172.67,120.43c.46-25.91.45-51.84-.05-77.75-.14-7.31-.32-14.62-.54-21.92-.09-3.21-5.1-3.22-5,0,.77,25.91,1.06,51.83.86,77.74-.05,7.31-.15,14.62-.28,21.93-.06,3.22,4.94,3.22,5,0h.01Z"/>
    <path class="st1" d="M167.54,17.98c-1.87,1.94-3.87,3.75-6,5.4l.51-.39c-.55.43-1.11.84-1.68,1.24-.57.4-.97.83-1.15,1.49-.16.6-.09,1.4.25,1.93.68,1.05,2.28,1.71,3.42.9,2.93-2.1,5.69-4.43,8.19-7.03.91-.94,1.01-2.61,0-3.54-1.01-.93-2.57-1.01-3.54,0Z"/>
    <path class="st1" d="M169.68,21.41c.78.15,1.56.35,2.31.61.18.06.35.12.53.19.09.03.17.07.26.1.47.18-.42-.19-.14-.06.36.16.72.33,1.08.51.69.36,1.35.76,1.98,1.21.1.07.19.14.28.21.27.2-.1-.09-.17-.13.16.09.3.24.44.36.32.27.63.56.93.85.94.92,2.62,1,3.54,0,.92-1,1-2.56,0-3.54-2.64-2.59-6.06-4.44-9.7-5.13-.67-.13-1.32-.1-1.93.25-.52.3-1.01.9-1.15,1.49-.28,1.23.37,2.82,1.75,3.08h-.01Z"/>
  </g>
  <g id="surface11" data-name="surface1">
    <path class="st0" d="M73.83,120.43c.18-28.37.19-56.74.02-85.11-.05-7.96-.11-15.93-.18-23.89-.03-3.22-5.03-3.22-5,0,.26,28.37.36,56.74.27,85.11-.02,7.96-.06,15.93-.11,23.89-.02,3.22,4.98,3.22,5,0Z"/>
    <path class="st0" d="M68.49,9c-2.27,3.7-4.09,7.67-5.44,11.8-.41,1.24.47,2.79,1.75,3.08,1.37.31,2.64-.41,3.08-1.75.32-.96.66-1.92,1.03-2.86.1-.25.2-.5.3-.75.05-.13.1-.25.16-.37-.12.29-.13.3,0,.04.19-.43.38-.87.58-1.3.86-1.84,1.82-3.62,2.88-5.35.69-1.12.28-2.8-.9-3.42-1.18-.62-2.69-.29-3.42.9v-.02Z"/>
    <path class="st0" d="M70.72,12.71c.38.25.8.49,1.14.8-.13-.12-.43-.34-.12-.09.09.07.18.15.27.22.18.15.35.3.53.46.69.62,1.33,1.3,1.92,2.02.06.07.11.15.17.22-.48-.57-.15-.19-.05-.06.14.19.27.38.4.57.25.37.48.74.7,1.12.23.4.45.81.65,1.23.05.1.1.21.15.32.04.09.21.48.04.09-.17-.39,0,0,.03.09.05.13.1.26.15.39.23.62.56,1.15,1.15,1.49.54.31,1.33.45,1.93.25,1.2-.39,2.23-1.76,1.75-3.08-1.58-4.27-4.43-7.89-8.27-10.36-1.1-.71-2.81-.26-3.42.9-.66,1.24-.28,2.66.9,3.42h-.02Z"/>
  </g>
</svg>