<?xml version="1.0" encoding="UTF-8"?>
<svg id="_图层_1" data-name="图层_1" xmlns="http://www.w3.org/2000/svg" version="1.1" viewBox="0 0 256 256">
  <!-- Generator: Adobe Illustrator 29.4.0, SVG Export Plug-In . SVG Version: 2.1.0 Build 152)  -->
  <defs>
    <style>
      .st0 {
        fill: #FF0000;
      }
    </style>
  </defs>
  <path class="st0" d="M207.02,160.88c-1.44-.14-2.64-3.46-3.24-4.62-1.43-2.75-2.99-5.43-4.68-8.02-3.11-4.76-6.75-9.76-12.84-10.45s-11.13,2.93-15.32,6.53-7.41,7.39-10.63,11.51c-6.49,8.29-12.27,17.36-20.47,24.13-4.18,3.45-9.08,6.15-14.21,7.91-2.66.91-5.39,1.59-8.16,2.03s-5.6.62-8.06-.64c-2.75-1.4-4.92-3.83-6.99-6.06-2.45-2.64-4.74-5.42-6.99-8.23-4.64-5.79-9.22-11.61-13.84-17.41-.84-1.06-2.66-.88-3.54,0-1.05,1.05-.84,2.47,0,3.54,4.22,5.31,8.44,10.63,12.66,15.94,3.88,4.87,7.8,10.03,12.59,14.05,2.3,1.94,4.87,3.44,7.88,3.89s6.22.04,9.27-.55c5.71-1.11,11.26-3.25,16.26-6.22,9.57-5.68,16.31-14.43,22.86-23.2,3.18-4.25,6.36-8.51,9.98-12.4s7.61-7.9,12.61-9.42c2.62-.8,5.2-.55,7.41,1.15,2.41,1.86,4.1,4.67,5.72,7.2,1.88,2.94,3.5,6,5.12,9.08,1.43,2.72,3.4,4.95,6.62,5.25,1.35.13,2.5-1.24,2.5-2.5,0-1.46-1.15-2.37-2.5-2.5h0Z"/>
  <path class="st0" d="M76.23,157.44c-.03.45-.07.89-.12,1.34-.02.19-.04.38-.07.57-.04.29-.03.25.01-.09-.02.13-.04.25-.05.38-.12.82-.27,1.64-.44,2.45-.36,1.69-.84,3.35-1.42,4.97-.44,1.23.5,2.79,1.75,3.08,1.4.32,2.6-.43,3.08-1.75,1.26-3.53,1.99-7.22,2.27-10.95.1-1.31-1.22-2.56-2.5-2.5-1.44.06-2.4,1.1-2.5,2.5h0Z"/>
  <path class="st0" d="M79.33,158.27h6.33c1.31,0,2.56-1.15,2.5-2.5s-1.1-2.5-2.5-2.5h-6.33c-1.31,0-2.56,1.15-2.5,2.5s1.1,2.5,2.5,2.5h0Z"/>
</svg>