<?xml version="1.0" encoding="UTF-8"?>
<svg id="_图层_1" data-name="图层_1" xmlns="http://www.w3.org/2000/svg" version="1.1" viewBox="0 0 256 256">
  <!-- Generator: Adobe Illustrator 29.4.0, SVG Export Plug-In . SVG Version: 2.1.0 Build 152)  -->
  <defs>
    <style>
      .st0 {
        fill: blue;
      }

      .st1 {
        fill: red;
      }
    </style>
  </defs>
  <g id="surface1">
    <path class="st0" d="M233.73,160.67c-2.73,1.04-5.28-.67-7.19-2.54-2.39-2.34-4.38-5-7.21-6.86-5.47-3.61-12.35-3.65-17.8,0-5.45,3.65-8.5,9.28-12.94,13.83-4.03,4.13-9.48,6.21-15.26,5.57-5.78-.64-10.35-4.59-14.29-8.76-4.38-4.64-8.61-9.56-14.61-12.12-3.03-1.29-6.21-1.83-9.48-1.32-3.1.49-5.86,2.08-8.25,4.05-4.73,3.91-7.44,9.53-11.46,14.05-2.19,2.46-4.74,4.42-7.93,5.36-3.19.94-6.42.95-9.56.24-6.65-1.52-12.02-6.06-16.2-11.27-.84-1.05-2.65-.88-3.54,0-1.04,1.04-.85,2.48,0,3.54,4.03,5.03,9.09,9.23,15.15,11.56s12.85,2.26,18.67-.48c5.82-2.74,9.39-8.49,13.07-13.58,3.25-4.49,7.82-9.41,13.92-8.63,6.13.79,10.78,5.77,14.74,10.05,4.27,4.6,8.71,9.26,14.82,11.3s12.59,1.29,18.03-1.63c5.83-3.13,9.11-8.87,13.41-13.63,2.15-2.37,4.68-4.67,7.83-5.56,3.15-.89,6.46-.04,9.16,1.75,3.02,2,4.96,5.24,7.78,7.49s6.83,3.81,10.48,2.42c1.26-.48,2.13-1.69,1.75-3.08-.33-1.21-1.81-2.23-3.08-1.75h0Z"/>
    <path class="st0" d="M80.36,163.37c3.35-1.83,6.7-3.65,10.04-5.48,1.15-.63,1.61-2.31.9-3.42s-2.19-1.57-3.42-.9c-3.35,1.83-6.7,3.65-10.04,5.48-1.15.63-1.61,2.31-.9,3.42.71,1.11,2.19,1.57,3.42.9Z"/>
    <path class="st0" d="M76.63,161.28v13.33c0,1.31,1.15,2.56,2.5,2.5,1.35-.06,2.5-1.1,2.5-2.5v-13.33c0-1.31-1.15-2.56-2.5-2.5-1.35.06-2.5,1.1-2.5,2.5Z"/>
  </g>
  <g id="surface11" data-name="surface1">
    <path class="st1" d="M22.94,53.34c2-3.08,4.12-6.1,6.9-8.55,2.78-2.45,6.33-3.88,9.87-4.97,8.04-2.48,16.38-3.98,24.73-4.85,8.35-.87,16.93-1.14,25.41-1.17,4.25,0,8.5.04,12.75.1,4.25.06,8.5-.06,12.67.51,4.51.62,8.54,2.49,12.47,4.68,4.24,2.37,8.36,4.95,12.36,7.72,1.11.77,2.78.21,3.42-.9.73-1.24.22-2.65-.9-3.42-3.68-2.54-7.46-4.94-11.35-7.15-3.89-2.21-7.55-4.13-11.7-5.17-4.39-1.1-8.95-1.14-13.44-1.22-4.49-.08-8.81-.14-13.21-.16-17.72-.06-35.72.77-52.85,5.7-4.58,1.32-9.05,2.97-12.82,5.96-3.55,2.81-6.19,6.59-8.64,10.35-1.76,2.71,2.57,5.21,4.32,2.52v.02Z"/>
    <path class="st1" d="M144.25,42.83c-.18-4.81-.21-9.63-.11-14.45.03-1.31-1.17-2.56-2.5-2.5-1.33.06-2.47,1.1-2.5,2.5-.1,4.82-.07,9.63.11,14.45.05,1.31,1.12,2.56,2.5,2.5s2.55-1.1,2.5-2.5Z"/>
    <path class="st1" d="M141.9,42.62c-5.77,1.37-11.56,2.64-17.38,3.8-1.32.26-2.09,1.84-1.75,3.08.38,1.38,1.75,2.01,3.08,1.75,5.82-1.16,11.61-2.43,17.38-3.8,1.31-.31,2.09-1.81,1.75-3.08-.37-1.34-1.76-2.06-3.08-1.75Z"/>
  </g>
</svg>