<?xml version="1.0" encoding="UTF-8"?>
<svg xmlns="http://www.w3.org/2000/svg" xmlns:xlink="http://www.w3.org/1999/xlink" width="256px" height="256px" viewBox="0 0 256 256" version="1.1">
<g id="surface1">
<path style=" stroke:none;fill-rule:nonzero;fill:rgb(255,0,0);fill-opacity:1;" d="M 251.359375 165.601562 C 247.71875 175.121094 239.609375 181.960938 231.128906 187.128906 C 226.578125 189.898438 221.808594 192.300781 217 194.570312 C 211.261719 197.28125 205.46875 199.898438 199.578125 202.269531 C 187.820312 207.011719 175.519531 210.980469 162.871094 212.421875 C 157.03125 213.089844 150.730469 213.578125 144.890625 212.621094 C 142.46875 212.21875 139.96875 211.511719 138.039062 209.921875 C 136.109375 208.328125 134.988281 205.898438 134.371094 203.460938 C 133.660156 200.660156 133.46875 197.738281 133.421875 194.871094 C 133.371094 191.601562 133.640625 188.351562 134.46875 185.179688 C 136.050781 179.128906 139.339844 173.738281 142.28125 168.289062 C 148.628906 156.53125 154.28125 144.398438 159.238281 131.988281 C 164.199219 119.578125 169.109375 106.789062 170.578125 93.460938 C 170.941406 90.191406 171.058594 86.878906 170.839844 83.601562 C 170.640625 80.511719 170.339844 77.25 168.96875 74.421875 C 166.171875 68.640625 159.511719 68.378906 153.910156 68.398438 C 126.609375 68.511719 99.730469 74.269531 73.300781 80.570312 C 69.988281 81.359375 66.691406 82.160156 63.378906 82.960938 C 60.25 83.71875 61.578125 88.539062 64.710938 87.78125 C 91.339844 81.339844 118.199219 74.820312 145.679688 73.601562 C 149.128906 73.449219 152.589844 73.371094 156.039062 73.398438 C 158.371094 73.421875 161.199219 73.441406 163.148438 74.929688 C 165.101562 76.421875 165.449219 79.410156 165.679688 81.710938 C 166.019531 84.988281 166.019531 88.300781 165.75 91.578125 C 165.210938 98.300781 163.488281 104.898438 161.449219 111.308594 C 159.410156 117.71875 157.109375 123.851562 154.671875 130.011719 C 149.75 142.390625 144.070312 154.46875 137.730469 166.191406 C 134.648438 171.878906 131.289062 177.558594 129.640625 183.859375 C 128.011719 190.089844 128.011719 196.949219 129.199219 203.261719 C 129.730469 206.039062 130.699219 208.851562 132.398438 211.148438 C 134.21875 213.601562 136.628906 215.289062 139.46875 216.378906 C 144.890625 218.460938 151.269531 218.230469 156.96875 217.929688 C 169.980469 217.25 182.691406 213.929688 194.871094 209.441406 C 206.359375 205.199219 217.78125 200.191406 228.558594 194.371094 C 237.828125 189.359375 246.898438 183.050781 252.660156 174.03125 C 254.078125 171.800781 255.21875 169.421875 256.160156 166.949219 C 256.640625 165.691406 255.628906 164.210938 254.410156 163.871094 C 253 163.480469 251.820312 164.351562 251.328125 165.621094 Z M 251.359375 165.601562 "/>
<path style=" stroke:none;fill-rule:nonzero;fill:rgb(255,0,0);fill-opacity:1;" d="M 67.828125 70.058594 C 67.449219 72.421875 66.800781 74.699219 65.921875 76.921875 C 65.808594 77.191406 65.800781 77.199219 65.910156 76.960938 C 65.851562 77.101562 65.789062 77.238281 65.71875 77.378906 C 65.589844 77.660156 65.460938 77.941406 65.328125 78.210938 C 65.101562 78.691406 64.851562 79.171875 64.589844 79.640625 C 64 80.71875 63.339844 81.75 62.628906 82.75 C 61.871094 83.820312 62.410156 85.578125 63.53125 86.171875 C 64.820312 86.851562 66.140625 86.410156 66.949219 85.269531 C 69.871094 81.160156 71.851562 76.351562 72.648438 71.371094 C 72.859375 70.078125 72.320312 68.621094 70.898438 68.289062 C 69.699219 68.019531 68.050781 68.660156 67.820312 70.039062 Z M 67.828125 70.058594 "/>
<path style=" stroke:none;fill-rule:nonzero;fill:rgb(255,0,0);fill-opacity:1;" d="M 61.851562 89.640625 C 64.960938 91.28125 68.058594 92.921875 71.171875 94.558594 C 72.328125 95.171875 73.941406 94.890625 74.589844 93.660156 C 75.199219 92.5 74.929688 90.890625 73.691406 90.238281 L 64.371094 85.320312 C 63.210938 84.710938 61.601562 84.988281 60.949219 86.21875 C 60.339844 87.378906 60.609375 88.988281 61.851562 89.640625 Z M 61.851562 89.640625 "/>
</g>
</svg>
