<?xml version="1.0" encoding="UTF-8"?>
<svg xmlns="http://www.w3.org/2000/svg" xmlns:xlink="http://www.w3.org/1999/xlink" width="256px" height="256px" viewBox="0 0 256 256" version="1.1">
<g id="surface1">
<path style=" stroke:none;fill-rule:nonzero;fill:rgb(255,0,0);fill-opacity:1;" d="M 50.128906 66.808594 C 52.519531 57.28125 62.699219 53.328125 70.988281 50.339844 C 75.949219 48.550781 80.988281 46.679688 86.261719 46.011719 C 91.789062 45.308594 97.410156 45.660156 102.96875 45.699219 C 123.960938 45.851562 145.53125 43.671875 165.871094 50.101562 C 175.519531 53.148438 184.558594 58.148438 191.460938 65.640625 C 193.640625 68.011719 197.171875 64.46875 195 62.101562 C 181.171875 47.078125 160.269531 41.910156 140.578125 40.78125 C 128.871094 40.109375 117.140625 40.691406 105.429688 40.699219 C 99.691406 40.699219 93.921875 40.328125 88.191406 40.808594 C 82.460938 41.289062 76.898438 42.929688 71.429688 44.890625 C 60.921875 48.640625 48.351562 53.378906 45.320312 65.480469 C 44.539062 68.601562 49.359375 69.929688 50.140625 66.808594 Z M 50.128906 66.808594 "/>
<path style=" stroke:none;fill-rule:nonzero;fill:rgb(255,0,0);fill-opacity:1;" d="M 190.691406 53.78125 C 190.980469 57.269531 191.578125 60.738281 192.519531 64.121094 C 192.871094 65.378906 194.308594 66.28125 195.601562 65.871094 C 196.890625 65.460938 197.71875 64.140625 197.351562 62.789062 C 196.921875 61.238281 196.550781 59.671875 196.261719 58.089844 C 196.191406 57.71875 196.128906 57.359375 196.070312 56.988281 C 196.039062 56.78125 196 56.558594 195.96875 56.351562 C 195.949219 56.199219 195.808594 55.5 195.941406 56.191406 C 195.789062 55.410156 195.75 54.578125 195.679688 53.789062 C 195.570312 52.488281 194.609375 51.230469 193.179688 51.289062 C 191.921875 51.351562 190.558594 52.390625 190.679688 53.789062 Z M 190.691406 53.78125 "/>
<path style=" stroke:none;fill-rule:nonzero;fill:rgb(255,0,0);fill-opacity:1;" d="M 194.988281 61.75 C 189.710938 61.75 184.410156 62.558594 179.371094 64.148438 C 178.121094 64.539062 177.199219 65.910156 177.621094 67.230469 C 178.019531 68.480469 179.359375 69.398438 180.699219 68.980469 C 185.550781 67.449219 189.96875 66.761719 194.988281 66.761719 C 196.300781 66.761719 197.550781 65.609375 197.488281 64.261719 C 197.429688 62.910156 196.390625 61.761719 194.988281 61.761719 Z M 194.988281 61.75 "/>
</g>
</svg>
