<?xml version="1.0" encoding="UTF-8"?>
<svg xmlns="http://www.w3.org/2000/svg" xmlns:xlink="http://www.w3.org/1999/xlink" width="256px" height="256px" viewBox="0 0 256 256" version="1.1">
<g id="surface1">
<path style=" stroke:none;fill-rule:nonzero;fill:rgb(255,0,0);fill-opacity:1;" d="M 244.660156 128.070312 C 226.550781 128.199219 208.441406 128.328125 190.320312 128.460938 C 187.101562 128.480469 187.101562 133.480469 190.320312 133.460938 C 208.429688 133.328125 226.539062 133.199219 244.660156 133.070312 C 247.878906 133.050781 247.878906 128.050781 244.660156 128.070312 Z M 244.660156 128.070312 "/>
<path style=" stroke:none;fill-rule:nonzero;fill:rgb(255,0,0);fill-opacity:1;" d="M 197.011719 118.859375 C 193.300781 121.421875 189.691406 124.121094 186.179688 126.941406 C 185.710938 127.320312 185.449219 128.140625 185.449219 128.710938 C 185.449219 129.320312 185.71875 130.058594 186.179688 130.480469 C 187.269531 131.480469 188.621094 131.359375 189.71875 130.480469 C 190.539062 129.820312 191.371094 129.160156 192.210938 128.511719 C 192.429688 128.339844 192.421875 128.351562 192.171875 128.539062 C 192.269531 128.460938 192.378906 128.378906 192.480469 128.300781 C 192.691406 128.140625 192.898438 127.980469 193.109375 127.820312 C 193.53125 127.5 193.949219 127.179688 194.378906 126.871094 C 196.070312 125.609375 197.789062 124.378906 199.53125 123.179688 C 200.601562 122.441406 201.199219 120.949219 200.429688 119.761719 C 199.738281 118.691406 198.160156 118.070312 197.011719 118.859375 Z M 197.011719 118.859375 "/>
<path style=" stroke:none;fill-rule:nonzero;fill:rgb(255,0,0);fill-opacity:1;" d="M 187.699219 132.921875 C 187.761719 132.898438 187.949219 132.871094 187.988281 132.820312 C 187.960938 132.859375 187.328125 132.929688 187.828125 132.851562 C 188.078125 132.808594 187.359375 132.730469 187.589844 132.808594 C 187.679688 132.839844 187.78125 132.871094 187.871094 132.890625 C 188.121094 132.949219 187.339844 132.601562 187.761719 132.851562 C 187.851562 132.898438 187.941406 132.949219 188.03125 133.011719 C 188.101562 133.058594 188.21875 133.171875 188.300781 133.191406 C 188.199219 133.171875 187.921875 132.871094 188.179688 133.101562 C 188.980469 133.800781 189.699219 134.601562 190.429688 135.371094 C 192 137.011719 193.570312 138.640625 195.140625 140.28125 C 196.050781 141.230469 197.769531 141.261719 198.679688 140.28125 C 199.589844 139.300781 199.648438 137.75 198.679688 136.738281 C 196.929688 134.910156 195.171875 133.089844 193.421875 131.261719 C 191.671875 129.429688 189.210938 126.988281 186.359375 128.078125 C 185.730469 128.320312 185.21875 128.628906 184.871094 129.230469 C 184.558594 129.769531 184.421875 130.558594 184.621094 131.160156 C 185 132.339844 186.390625 133.410156 187.699219 132.910156 Z M 187.699219 132.921875 "/>
</g>
</svg>
