<?xml version="1.0" encoding="UTF-8"?>
<svg xmlns="http://www.w3.org/2000/svg" xmlns:xlink="http://www.w3.org/1999/xlink" width="256px" height="256px" viewBox="0 0 256 256" version="1.1">
<g id="surface1">
<path style=" stroke:none;fill-rule:nonzero;fill:rgb(0,0,255);fill-opacity:1;" d="M 12.648438 131.078125 C 29.398438 131.410156 46.148438 131.371094 62.898438 130.960938 C 67.710938 130.839844 72.519531 130.691406 77.320312 130.519531 C 80.53125 130.398438 80.539062 125.398438 77.320312 125.519531 C 60.578125 126.140625 43.828125 126.390625 27.078125 126.269531 C 22.269531 126.238281 17.460938 126.171875 12.648438 126.078125 C 9.429688 126.019531 9.429688 131.019531 12.648438 131.078125 Z M 12.648438 131.078125 "/>
<path style=" stroke:none;fill-rule:nonzero;fill:rgb(0,0,255);fill-opacity:1;" d="M 67.011719 122.121094 C 67.441406 122.261719 67.871094 122.410156 68.289062 122.578125 C 68.371094 122.609375 68.578125 122.75 68.660156 122.730469 C 68.578125 122.75 68.171875 122.519531 68.5 122.671875 C 68.71875 122.769531 68.941406 122.871094 69.148438 122.96875 C 69.988281 123.371094 70.808594 123.820312 71.601562 124.320312 C 71.980469 124.558594 72.359375 124.808594 72.730469 125.078125 C 72.921875 125.21875 73.109375 125.371094 73.308594 125.511719 C 73.210938 125.441406 72.929688 125.210938 73.179688 125.410156 C 73.261719 125.480469 73.351562 125.539062 73.429688 125.609375 C 74.171875 126.21875 74.871094 126.871094 75.53125 127.570312 C 76.441406 128.519531 78.171875 128.550781 79.070312 127.570312 C 79.96875 126.589844 80.039062 125.039062 79.070312 124.03125 C 76.109375 120.941406 72.398438 118.648438 68.351562 117.300781 C 67.109375 116.890625 65.558594 117.78125 65.269531 119.050781 C 64.960938 120.429688 65.691406 121.679688 67.019531 122.128906 Z M 67.011719 122.121094 "/>
<path style=" stroke:none;fill-rule:nonzero;fill:rgb(0,0,255);fill-opacity:1;" d="M 76.148438 127.601562 C 72.640625 131.640625 68.761719 135.351562 64.558594 138.671875 C 63.53125 139.488281 63.640625 141.359375 64.558594 142.210938 C 65.648438 143.210938 67 143.078125 68.101562 142.210938 C 72.300781 138.890625 76.171875 135.179688 79.691406 131.140625 C 80.550781 130.148438 80.730469 128.558594 79.691406 127.601562 C 78.75 126.738281 77.070312 126.550781 76.148438 127.601562 Z M 76.148438 127.601562 "/>
</g>
</svg>
