<?xml version="1.0" encoding="UTF-8"?>
<svg xmlns="http://www.w3.org/2000/svg" xmlns:xlink="http://www.w3.org/1999/xlink" width="256px" height="256px" viewBox="0 0 256 256" version="1.1">
<g id="surface1">
<path style=" stroke:none;fill-rule:nonzero;fill:rgb(255,0,0);fill-opacity:1;" d="M 15.851562 132.679688 C 16.71875 126.421875 18.328125 120.269531 20.691406 114.398438 C 21.808594 111.621094 23.089844 108.828125 24.628906 106.261719 C 25.78125 104.328125 27.289062 102.851562 29.660156 102.78125 C 35.28125 102.621094 38.558594 107.980469 40.769531 112.378906 C 43.480469 117.800781 45.679688 123.449219 47.761719 129.128906 C 52.070312 140.921875 55.851562 153.019531 61.941406 164.050781 C 64.410156 168.53125 68.570312 173.691406 74.289062 173.070312 C 80.011719 172.449219 84.210938 166.941406 87.101562 162.609375 C 90.390625 157.679688 92.640625 152.160156 95.128906 146.800781 C 96.371094 144.128906 97.671875 141.488281 99.179688 138.960938 C 100.351562 137 102.019531 133.988281 104.628906 134.03125 C 107.851562 134.070312 107.851562 129.070312 104.628906 129.03125 C 98.550781 128.949219 95.21875 135.46875 92.828125 140.121094 C 90.441406 144.769531 88.378906 149.929688 85.910156 154.710938 C 83.589844 159.199219 80.648438 164.210938 76.328125 167.058594 C 74.289062 168.410156 72.308594 168.429688 70.359375 166.890625 C 68.410156 165.351562 67.101562 163.089844 65.929688 160.941406 C 59.878906 149.769531 56.21875 137.550781 51.800781 125.691406 C 49.570312 119.699219 47.230469 113.628906 44.128906 108.03125 C 41.269531 102.859375 36.96875 98.308594 30.761719 97.808594 C 27.480469 97.539062 24.210938 98.789062 22.050781 101.300781 C 19.890625 103.808594 18.359375 107.269531 16.988281 110.398438 C 14.070312 117.101562 12.03125 124.109375 11.019531 131.359375 C 10.828125 132.699219 11.339844 134.039062 12.769531 134.441406 C 13.941406 134.761719 15.660156 134.039062 15.851562 132.691406 Z M 15.851562 132.679688 "/>
<path style=" stroke:none;fill-rule:nonzero;fill:rgb(255,0,0);fill-opacity:1;" d="M 93.328125 131.171875 C 93.769531 131.191406 94.21875 131.21875 94.660156 131.261719 C 94.851562 131.28125 95.039062 131.300781 95.230469 131.320312 C 95.371094 131.328125 96.21875 131.398438 95.511719 131.351562 C 96.320312 131.410156 97.160156 131.621094 97.949219 131.800781 C 98.738281 131.980469 99.550781 132.199219 100.339844 132.460938 C 100.761719 132.601562 101.179688 132.738281 101.601562 132.898438 C 101.78125 132.96875 101.960938 133.039062 102.128906 133.109375 C 102.25 133.160156 102.371094 133.199219 102.480469 133.25 C 102.179688 133.121094 102.148438 133.109375 102.410156 133.21875 C 103.050781 133.5 103.628906 133.671875 104.339844 133.46875 C 104.921875 133.308594 105.550781 132.859375 105.828125 132.320312 C 106.398438 131.238281 106.21875 129.449219 104.929688 128.898438 C 101.21875 127.300781 97.359375 126.359375 93.308594 126.191406 C 92 126.128906 90.75 127.378906 90.808594 128.691406 C 90.871094 130.089844 91.910156 131.128906 93.308594 131.191406 Z M 93.328125 131.171875 "/>
<path style=" stroke:none;fill-rule:nonzero;fill:rgb(255,0,0);fill-opacity:1;" d="M 103.421875 132.46875 L 101.460938 142.078125 C 101.199219 143.359375 101.828125 144.839844 103.210938 145.160156 C 104.460938 145.441406 106.011719 144.78125 106.289062 143.410156 L 108.25 133.800781 C 108.511719 132.519531 107.878906 131.039062 106.5 130.71875 C 105.25 130.441406 103.699219 131.101562 103.421875 132.46875 Z M 103.421875 132.46875 "/>
</g>
</svg>
