<?xml version="1.0" encoding="UTF-8"?>
<svg id="_图层_1" data-name="图层_1" xmlns="http://www.w3.org/2000/svg" version="1.1" viewBox="0 0 256 256">
  <!-- Generator: Adobe Illustrator 29.4.0, SVG Export Plug-In . SVG Version: 2.1.0 Build 152)  -->
  <defs>
    <style>
      .st0 {
        fill: #231815;
      }

      .st1 {
        fill: blue;
      }

      .st2 {
        fill: red;
      }
    </style>
  </defs>
  <g id="surface1">
    <path class="st0" d="M41.34,169.64c-.15-10.78-.3-21.57-.11-32.36.18-9.95.63-19.84,3.87-29.33,5.73-16.76,18.19-30.51,32.9-40.01,8.81-5.69,18.41-10.02,28.35-13.32,3.04-1.01,1.74-5.84-1.33-4.82-18.11,6.02-35.57,15.43-48.5,29.72-6.23,6.89-11.3,14.73-14.83,23.33-3.84,9.36-5.04,19.25-5.35,29.3-.38,12.49-.18,25-.01,37.49.04,3.21,5.04,3.22,5,0h.01Z"/>
    <path class="st0" d="M88.36,47.4c4.79,2.7,10.04,4.65,15.47,5.6.52.09,1.06.15,1.57.3.02,0,.32,0,.33.13,0-.08-.53-.55-.38-.62-.2.1-.36,1.74-.41,2-.16.76-.31,1.51-.47,2.27-.61,2.95-1.22,5.91-1.83,8.86-.27,1.32.38,2.7,1.75,3.08,1.24.34,2.8-.42,3.08-1.75.68-3.3,1.36-6.59,2.05-9.89.32-1.53.88-3.22.81-4.79-.08-1.81-1.23-3.18-2.87-3.85-1.26-.51-2.66-.61-3.98-.89-1.5-.32-2.98-.71-4.44-1.18-2.84-.91-5.55-2.12-8.15-3.59-2.81-1.58-5.33,2.73-2.52,4.32h-.01Z"/>
  </g>
  <g id="surface11" data-name="surface1">
    <path class="st2" d="M199.58,192.95c-11.36,16.54-30.36,25.58-49.47,29.77-10.73,2.35-21.98,3.78-32.98,3.18-10.84-.59-20.95-4.32-30.76-8.74-10.3-4.64-20.26-10.31-28.45-18.18-2.32-2.23-5.86,1.3-3.54,3.54,7.65,7.36,16.77,12.97,26.33,17.52,10.2,4.85,20.85,9.22,32.16,10.51,11.43,1.31,23.23-.06,34.49-2.17,11.26-2.11,21.69-5.41,31.48-10.75s18.67-12.83,25.07-22.15c.77-1.11.21-2.77-.9-3.42-1.24-.72-2.65-.22-3.42.9h-.01Z"/>
    <path class="st2" d="M52.8,199.36c1.15,5.32.78,10.85-.96,16.04-.43,1.28.49,2.73,1.75,3.08,1.36.37,2.65-.46,3.08-1.75,2.01-6.02,2.29-12.5.96-18.7-.28-1.32-1.83-2.09-3.08-1.75-1.36.38-2.03,1.75-1.75,3.08Z"/>
    <path class="st2" d="M55.85,198.4c5.52.68,11.09.95,16.65.81,1.31-.03,2.56-1.13,2.5-2.5s-1.1-2.53-2.5-2.5c-5.56.14-11.13-.13-16.65-.81-1.3-.16-2.56,1.26-2.5,2.5.07,1.49,1.1,2.33,2.5,2.5Z"/>
  </g>
  <g id="surface12" data-name="surface1">
    <path class="st1" d="M137.24,44.44c22.84.97,40.31,18.39,52.67,36,6.95,9.9,12.37,20.52,16.8,31.77s8.66,22.84,10.92,34.86c2.52,13.39,2.88,27.28,1.03,40.78-.18,1.34.32,2.68,1.75,3.08,1.17.32,2.89-.4,3.08-1.75,1.74-12.74,1.7-25.56-.17-38.29-1.86-12.61-5.86-24.62-10.41-36.48-4.52-11.77-9.66-23.11-16.7-33.61-6.53-9.74-14-19.14-23.11-26.59-10.21-8.34-22.54-14.21-35.86-14.78-3.22-.14-3.21,4.86,0,5h0Z"/>
    <path class="st1" d="M219.87,185.03c-.15.05-.31.09-.46.14-.3.1.49-.04.02-.02-.47.02.3.11.02.01-.15-.05-.31-.08-.46-.12-.36-.11,0,.06.06.03-.05.02-.37-.2-.44-.24-.15-.09-.28-.18-.43-.27-.39-.24.15.15-.07-.04-1.07-.93-2.02-1.99-2.94-3.07-.47-.55-.93-1.11-1.39-1.68-.12-.15-.24-.3-.35-.45.22.28,0,0-.1-.13-.21-.27-.41-.55-.62-.82-.9-1.23-1.76-2.5-2.56-3.79-.69-1.11-2.26-1.64-3.42-.9-1.16.74-1.64,2.23-.9,3.42,1.85,2.96,3.95,5.77,6.25,8.4s5.4,5.69,9.11,4.35c1.23-.44,2.18-1.72,1.75-3.08-.39-1.21-1.76-2.22-3.08-1.75h0Z"/>
    <path class="st1" d="M224.37,190.99c3.41-2.68,6.63-5.58,9.64-8.69.91-.94,1.01-2.61,0-3.54-1.01-.93-2.56-1-3.54,0-3.02,3.11-6.24,6.01-9.64,8.69-.47.37-.73,1.2-.73,1.77,0,.61.27,1.35.73,1.77.46.42,1.1.76,1.77.73.71-.03,1.22-.3,1.77-.73Z"/>
  </g>
</svg>