<?xml version="1.0" encoding="UTF-8"?>
<svg xmlns="http://www.w3.org/2000/svg" xmlns:xlink="http://www.w3.org/1999/xlink" width="256px" height="256px" viewBox="0 0 256 256" version="1.1">
<g id="surface1">
<path style=" stroke:none;fill-rule:nonzero;fill:rgb(255,0,0);fill-opacity:1;" d="M 77.859375 139.25 C 79.839844 122.078125 80.230469 104.738281 78.988281 87.5 C 78.640625 82.621094 78.148438 77.761719 77.539062 72.898438 C 77.371094 71.558594 76.511719 70.398438 75.039062 70.398438 C 73.820312 70.398438 72.371094 71.550781 72.539062 72.898438 C 74.691406 90.050781 75.238281 107.390625 74.160156 124.628906 C 73.851562 129.511719 73.410156 134.378906 72.851562 139.238281 C 72.691406 140.578125 74.109375 141.738281 75.351562 141.738281 C 76.828125 141.738281 77.691406 140.589844 77.851562 139.238281 Z M 77.859375 139.25 "/>
<path style=" stroke:none;fill-rule:nonzero;fill:rgb(255,0,0);fill-opacity:1;" d="M 70.328125 69.238281 L 65.460938 81.289062 C 64.96875 82.511719 65.988281 84.089844 67.210938 84.371094 C 68.660156 84.699219 69.761719 83.929688 70.289062 82.621094 L 75.160156 70.570312 C 75.648438 69.351562 74.628906 67.769531 73.410156 67.488281 C 71.960938 67.160156 70.859375 67.929688 70.328125 69.238281 Z M 70.328125 69.238281 "/>
<path style=" stroke:none;fill-rule:nonzero;fill:rgb(255,0,0);fill-opacity:1;" d="M 75.5 72.390625 C 75.738281 72.410156 75.980469 72.429688 76.21875 72.449219 C 76.339844 72.460938 76.460938 72.480469 76.578125 72.488281 C 76.210938 72.441406 76.171875 72.429688 76.449219 72.46875 C 76.929688 72.550781 77.398438 72.628906 77.871094 72.738281 C 78.75 72.941406 79.621094 73.199219 80.46875 73.519531 C 80.691406 73.601562 80.929688 73.679688 81.140625 73.789062 C 80.5 73.488281 81.25 73.851562 81.371094 73.898438 C 81.75 74.078125 82.128906 74.269531 82.5 74.46875 C 83.351562 74.941406 84.148438 75.460938 84.929688 76.039062 C 85.410156 76.398438 86.300781 76.441406 86.859375 76.289062 C 87.421875 76.140625 88.070312 75.679688 88.351562 75.140625 C 89.039062 73.828125 88.570312 72.558594 87.449219 71.71875 C 83.988281 69.121094 79.789062 67.679688 75.5 67.371094 C 74.191406 67.28125 72.941406 68.589844 73 69.871094 C 73.058594 71.308594 74.101562 72.269531 75.5 72.371094 Z M 75.5 72.390625 "/>
</g>
</svg>
